<?xml version="1.0" encoding="UTF-8"?>
<svg xmlns="http://www.w3.org/2000/svg" xmlns:xlink="http://www.w3.org/1999/xlink" width="854" height="480" viewBox="0 0 854 480">
<defs>
<g>
<g id="glyph-0-0">
<path d="M 0.109375 0 L 0.109375 -0.125 L 0.15625 -0.125 C 0.226562 -0.125 0.285156 -0.132812 0.328125 -0.15625 C 0.378906 -0.1875 0.40625 -0.25 0.40625 -0.34375 L 0.40625 -1.84375 C 0.40625 -1.9375 0.378906 -1.992188 0.328125 -2.015625 C 0.273438 -2.046875 0.21875 -2.0625 0.15625 -2.0625 L 0.109375 -2.0625 L 0.109375 -2.1875 L 1 -2.1875 L 1 -2.0625 L 0.96875 -2.0625 C 0.894531 -2.0625 0.832031 -2.046875 0.78125 -2.015625 C 0.738281 -1.992188 0.71875 -1.9375 0.71875 -1.84375 L 0.71875 -1.21875 L 1.71875 -1.21875 L 1.71875 -1.84375 C 1.71875 -1.9375 1.691406 -1.992188 1.640625 -2.015625 C 1.585938 -2.046875 1.523438 -2.0625 1.453125 -2.0625 L 1.421875 -2.0625 L 1.421875 -2.1875 L 2.3125 -2.1875 L 2.3125 -2.0625 L 2.265625 -2.0625 C 2.203125 -2.0625 2.144531 -2.046875 2.09375 -2.015625 C 2.039062 -1.992188 2.015625 -1.9375 2.015625 -1.84375 L 2.015625 -0.328125 C 2.015625 -0.242188 2.039062 -0.1875 2.09375 -0.15625 C 2.144531 -0.132812 2.203125 -0.125 2.265625 -0.125 L 2.3125 -0.125 L 2.3125 0 L 1.421875 0 L 1.421875 -0.125 L 1.453125 -0.125 C 1.523438 -0.125 1.585938 -0.132812 1.640625 -0.15625 C 1.691406 -0.1875 1.71875 -0.25 1.71875 -0.34375 L 1.71875 -1.0625 L 0.71875 -1.0625 L 0.71875 -0.34375 C 0.71875 -0.25 0.738281 -0.1875 0.78125 -0.15625 C 0.832031 -0.132812 0.894531 -0.125 0.96875 -0.125 L 1 -0.125 L 1 0 Z "/>
</g>
<g id="glyph-0-1">
<path d="M 0.875 0.03125 C 0.65625 0.03125 0.484375 -0.0390625 0.359375 -0.1875 C 0.234375 -0.332031 0.171875 -0.539062 0.171875 -0.8125 C 0.171875 -1.09375 0.226562 -1.304688 0.34375 -1.453125 C 0.46875 -1.597656 0.632812 -1.671875 0.84375 -1.671875 C 1.039062 -1.671875 1.195312 -1.609375 1.3125 -1.484375 C 1.425781 -1.359375 1.484375 -1.175781 1.484375 -0.9375 L 1.484375 -0.796875 L 0.46875 -0.796875 C 0.46875 -0.578125 0.503906 -0.414062 0.578125 -0.3125 C 0.660156 -0.207031 0.773438 -0.15625 0.921875 -0.15625 C 1.023438 -0.15625 1.113281 -0.175781 1.1875 -0.21875 C 1.257812 -0.269531 1.316406 -0.320312 1.359375 -0.375 C 1.367188 -0.375 1.378906 -0.363281 1.390625 -0.34375 C 1.410156 -0.320312 1.421875 -0.296875 1.421875 -0.265625 C 1.421875 -0.234375 1.398438 -0.191406 1.359375 -0.140625 C 1.316406 -0.0976562 1.253906 -0.0546875 1.171875 -0.015625 C 1.097656 0.015625 1 0.03125 0.875 0.03125 Z M 1.171875 -0.96875 C 1.171875 -1.125 1.144531 -1.25 1.09375 -1.34375 C 1.050781 -1.445312 0.96875 -1.5 0.84375 -1.5 C 0.726562 -1.5 0.640625 -1.453125 0.578125 -1.359375 C 0.515625 -1.273438 0.476562 -1.144531 0.46875 -0.96875 Z "/>
</g>
<g id="glyph-0-2">
<path d="M 0.734375 0.03125 C 0.578125 0.03125 0.460938 -0.00390625 0.390625 -0.078125 C 0.328125 -0.148438 0.296875 -0.269531 0.296875 -0.4375 L 0.296875 -1.46875 L 0.0625 -1.46875 L 0.0625 -1.59375 C 0.09375 -1.59375 0.128906 -1.597656 0.171875 -1.609375 C 0.222656 -1.628906 0.265625 -1.65625 0.296875 -1.6875 C 0.328125 -1.726562 0.351562 -1.773438 0.375 -1.828125 C 0.40625 -1.878906 0.425781 -1.941406 0.4375 -2.015625 L 0.578125 -2.015625 L 0.578125 -1.640625 L 0.984375 -1.640625 L 0.984375 -1.46875 L 0.578125 -1.46875 L 0.578125 -0.4375 C 0.578125 -0.332031 0.597656 -0.253906 0.640625 -0.203125 C 0.679688 -0.148438 0.738281 -0.125 0.8125 -0.125 C 0.84375 -0.125 0.875 -0.125 0.90625 -0.125 C 0.9375 -0.132812 0.96875 -0.144531 1 -0.15625 L 1 -0.015625 C 0.976562 -0.00390625 0.941406 0.00390625 0.890625 0.015625 C 0.835938 0.0234375 0.785156 0.03125 0.734375 0.03125 Z "/>
</g>
<g id="glyph-0-3">
<path d="M 0.09375 0 L 0.09375 -0.125 L 0.109375 -0.125 C 0.179688 -0.125 0.238281 -0.132812 0.28125 -0.15625 C 0.332031 -0.1875 0.359375 -0.25 0.359375 -0.34375 L 0.359375 -1.296875 C 0.359375 -1.390625 0.332031 -1.445312 0.28125 -1.46875 C 0.238281 -1.5 0.179688 -1.515625 0.109375 -1.515625 L 0.09375 -1.515625 L 0.09375 -1.640625 L 0.578125 -1.640625 L 0.625 -1.34375 L 0.640625 -1.34375 C 0.671875 -1.40625 0.703125 -1.457031 0.734375 -1.5 C 0.765625 -1.550781 0.804688 -1.59375 0.859375 -1.625 C 0.910156 -1.65625 0.976562 -1.671875 1.0625 -1.671875 C 1.175781 -1.671875 1.257812 -1.648438 1.3125 -1.609375 C 1.363281 -1.578125 1.390625 -1.523438 1.390625 -1.453125 C 1.390625 -1.390625 1.367188 -1.335938 1.328125 -1.296875 C 1.285156 -1.253906 1.210938 -1.234375 1.109375 -1.234375 C 1.109375 -1.316406 1.09375 -1.375 1.0625 -1.40625 C 1.039062 -1.445312 1.003906 -1.46875 0.953125 -1.46875 C 0.890625 -1.46875 0.835938 -1.441406 0.796875 -1.390625 C 0.765625 -1.347656 0.738281 -1.289062 0.71875 -1.21875 C 0.695312 -1.15625 0.679688 -1.085938 0.671875 -1.015625 C 0.660156 -0.941406 0.65625 -0.875 0.65625 -0.8125 L 0.65625 -0.328125 C 0.65625 -0.242188 0.675781 -0.1875 0.71875 -0.15625 C 0.769531 -0.132812 0.832031 -0.125 0.90625 -0.125 L 0.984375 -0.125 L 0.984375 0 Z "/>
</g>
<g id="glyph-0-4">
<path d="M 0.875 0.03125 C 0.65625 0.03125 0.484375 -0.0351562 0.359375 -0.171875 C 0.234375 -0.316406 0.171875 -0.535156 0.171875 -0.828125 C 0.171875 -1.109375 0.226562 -1.316406 0.34375 -1.453125 C 0.46875 -1.597656 0.648438 -1.671875 0.890625 -1.671875 C 1.109375 -1.671875 1.28125 -1.597656 1.40625 -1.453125 C 1.53125 -1.316406 1.59375 -1.109375 1.59375 -0.828125 C 1.59375 -0.535156 1.53125 -0.316406 1.40625 -0.171875 C 1.289062 -0.0351562 1.113281 0.03125 0.875 0.03125 Z M 0.890625 -0.125 C 1.035156 -0.125 1.140625 -0.179688 1.203125 -0.296875 C 1.265625 -0.421875 1.296875 -0.597656 1.296875 -0.828125 C 1.296875 -1.054688 1.265625 -1.226562 1.203125 -1.34375 C 1.140625 -1.457031 1.03125 -1.515625 0.875 -1.515625 C 0.726562 -1.515625 0.625 -1.457031 0.5625 -1.34375 C 0.5 -1.226562 0.46875 -1.054688 0.46875 -0.828125 C 0.46875 -0.597656 0.5 -0.421875 0.5625 -0.296875 C 0.625 -0.179688 0.734375 -0.125 0.890625 -0.125 Z "/>
</g>
<g id="glyph-0-5">
<path d="M 0.703125 0.734375 C 0.492188 0.734375 0.335938 0.691406 0.234375 0.609375 C 0.128906 0.535156 0.078125 0.425781 0.078125 0.28125 C 0.078125 0.164062 0.113281 0.078125 0.1875 0.015625 C 0.257812 -0.046875 0.347656 -0.0859375 0.453125 -0.109375 C 0.410156 -0.117188 0.367188 -0.144531 0.328125 -0.1875 C 0.296875 -0.226562 0.28125 -0.285156 0.28125 -0.359375 C 0.28125 -0.421875 0.296875 -0.472656 0.328125 -0.515625 C 0.359375 -0.554688 0.410156 -0.597656 0.484375 -0.640625 C 0.398438 -0.679688 0.332031 -0.742188 0.28125 -0.828125 C 0.226562 -0.910156 0.203125 -1.003906 0.203125 -1.109375 C 0.203125 -1.285156 0.25 -1.421875 0.34375 -1.515625 C 0.445312 -1.617188 0.59375 -1.671875 0.78125 -1.671875 C 0.851562 -1.671875 0.921875 -1.660156 0.984375 -1.640625 C 1.054688 -1.617188 1.109375 -1.597656 1.140625 -1.578125 C 1.160156 -1.609375 1.195312 -1.640625 1.25 -1.671875 C 1.300781 -1.710938 1.363281 -1.734375 1.4375 -1.734375 C 1.488281 -1.734375 1.53125 -1.71875 1.5625 -1.6875 C 1.59375 -1.65625 1.609375 -1.617188 1.609375 -1.578125 C 1.609375 -1.535156 1.59375 -1.5 1.5625 -1.46875 C 1.539062 -1.4375 1.503906 -1.421875 1.453125 -1.421875 C 1.453125 -1.441406 1.441406 -1.460938 1.421875 -1.484375 C 1.410156 -1.503906 1.382812 -1.515625 1.34375 -1.515625 C 1.300781 -1.515625 1.257812 -1.503906 1.21875 -1.484375 C 1.25 -1.441406 1.273438 -1.390625 1.296875 -1.328125 C 1.316406 -1.273438 1.328125 -1.203125 1.328125 -1.109375 C 1.328125 -0.960938 1.28125 -0.835938 1.1875 -0.734375 C 1.101562 -0.640625 0.96875 -0.59375 0.78125 -0.59375 C 0.757812 -0.59375 0.734375 -0.59375 0.703125 -0.59375 C 0.671875 -0.59375 0.644531 -0.597656 0.625 -0.609375 C 0.582031 -0.585938 0.546875 -0.5625 0.515625 -0.53125 C 0.492188 -0.5 0.484375 -0.457031 0.484375 -0.40625 C 0.484375 -0.375 0.492188 -0.347656 0.515625 -0.328125 C 0.535156 -0.304688 0.585938 -0.296875 0.671875 -0.296875 L 1.015625 -0.296875 C 1.191406 -0.296875 1.316406 -0.25 1.390625 -0.15625 C 1.472656 -0.0703125 1.515625 0.03125 1.515625 0.15625 C 1.515625 0.332031 1.445312 0.472656 1.3125 0.578125 C 1.1875 0.679688 0.984375 0.734375 0.703125 0.734375 Z M 0.78125 -0.734375 C 0.875 -0.734375 0.941406 -0.765625 0.984375 -0.828125 C 1.023438 -0.890625 1.046875 -0.988281 1.046875 -1.125 C 1.046875 -1.257812 1.023438 -1.359375 0.984375 -1.421875 C 0.941406 -1.484375 0.867188 -1.515625 0.765625 -1.515625 C 0.671875 -1.515625 0.601562 -1.476562 0.5625 -1.40625 C 0.519531 -1.34375 0.5 -1.242188 0.5 -1.109375 C 0.5 -0.984375 0.519531 -0.890625 0.5625 -0.828125 C 0.601562 -0.765625 0.675781 -0.734375 0.78125 -0.734375 Z M 0.71875 0.578125 C 0.863281 0.578125 0.972656 0.5625 1.046875 0.53125 C 1.128906 0.5 1.1875 0.457031 1.21875 0.40625 C 1.25 0.351562 1.265625 0.289062 1.265625 0.21875 C 1.265625 0.125 1.238281 0.0625 1.1875 0.03125 C 1.132812 0 1.054688 -0.015625 0.953125 -0.015625 L 0.65625 -0.015625 C 0.59375 -0.015625 0.535156 -0.0078125 0.484375 0 C 0.441406 0.0195312 0.398438 0.046875 0.359375 0.078125 C 0.328125 0.117188 0.3125 0.179688 0.3125 0.265625 C 0.3125 0.328125 0.320312 0.378906 0.34375 0.421875 C 0.375 0.472656 0.414062 0.507812 0.46875 0.53125 C 0.53125 0.5625 0.613281 0.578125 0.71875 0.578125 Z "/>
</g>
<g id="glyph-0-6">
<path d="M 0.078125 0 L 0.078125 -0.125 L 0.109375 -0.125 C 0.179688 -0.125 0.238281 -0.132812 0.28125 -0.15625 C 0.332031 -0.1875 0.359375 -0.25 0.359375 -0.34375 L 0.359375 -1.296875 C 0.359375 -1.390625 0.332031 -1.445312 0.28125 -1.46875 C 0.238281 -1.5 0.179688 -1.515625 0.109375 -1.515625 L 0.09375 -1.515625 L 0.09375 -1.640625 L 0.59375 -1.640625 L 0.640625 -1.390625 L 0.65625 -1.390625 C 0.71875 -1.503906 0.785156 -1.578125 0.859375 -1.609375 C 0.941406 -1.648438 1.03125 -1.671875 1.125 -1.671875 C 1.289062 -1.671875 1.414062 -1.625 1.5 -1.53125 C 1.59375 -1.4375 1.640625 -1.285156 1.640625 -1.078125 L 1.640625 -0.34375 C 1.640625 -0.25 1.660156 -0.1875 1.703125 -0.15625 C 1.742188 -0.132812 1.800781 -0.125 1.875 -0.125 L 1.890625 -0.125 L 1.890625 0 L 1.359375 0 L 1.359375 -1.0625 C 1.359375 -1.1875 1.332031 -1.285156 1.28125 -1.359375 C 1.226562 -1.429688 1.140625 -1.46875 1.015625 -1.46875 C 0.921875 -1.46875 0.847656 -1.445312 0.796875 -1.40625 C 0.742188 -1.363281 0.707031 -1.300781 0.6875 -1.21875 C 0.664062 -1.144531 0.65625 -1.066406 0.65625 -0.984375 L 0.65625 -0.328125 C 0.65625 -0.242188 0.675781 -0.1875 0.71875 -0.15625 C 0.769531 -0.132812 0.828125 -0.125 0.890625 -0.125 L 0.90625 -0.125 L 0.90625 0 Z "/>
</g>
<g id="glyph-0-7">
</g>
<g id="glyph-0-8">
<path d="M 0.96875 0.390625 C 0.78125 0.316406 0.625 0.21875 0.5 0.09375 C 0.382812 -0.0195312 0.300781 -0.164062 0.25 -0.34375 C 0.195312 -0.519531 0.171875 -0.726562 0.171875 -0.96875 C 0.171875 -1.21875 0.195312 -1.425781 0.25 -1.59375 C 0.300781 -1.769531 0.382812 -1.914062 0.5 -2.03125 C 0.625 -2.15625 0.78125 -2.253906 0.96875 -2.328125 L 0.96875 -2.1875 C 0.820312 -2.101562 0.710938 -1.992188 0.640625 -1.859375 C 0.578125 -1.734375 0.535156 -1.59375 0.515625 -1.4375 C 0.503906 -1.289062 0.5 -1.132812 0.5 -0.96875 C 0.5 -0.8125 0.503906 -0.65625 0.515625 -0.5 C 0.535156 -0.34375 0.578125 -0.195312 0.640625 -0.0625 C 0.710938 0.0625 0.820312 0.164062 0.96875 0.25 Z "/>
</g>
<g id="glyph-0-9">
<path d="M 0.109375 0 L 0.109375 -0.125 L 0.15625 -0.125 C 0.21875 -0.125 0.273438 -0.132812 0.328125 -0.15625 C 0.378906 -0.1875 0.40625 -0.242188 0.40625 -0.328125 L 0.40625 -1.84375 C 0.40625 -1.9375 0.378906 -1.992188 0.328125 -2.015625 C 0.273438 -2.046875 0.21875 -2.0625 0.15625 -2.0625 L 0.109375 -2.0625 L 0.109375 -2.1875 L 0.8125 -2.1875 L 1.453125 -0.4375 L 2.078125 -2.1875 L 2.75 -2.1875 L 2.75 -2.0625 L 2.71875 -2.0625 C 2.644531 -2.0625 2.582031 -2.046875 2.53125 -2.015625 C 2.488281 -1.992188 2.46875 -1.9375 2.46875 -1.84375 L 2.46875 -0.34375 C 2.46875 -0.25 2.488281 -0.1875 2.53125 -0.15625 C 2.582031 -0.132812 2.644531 -0.125 2.71875 -0.125 L 2.75 -0.125 L 2.75 0 L 1.9375 0 L 1.9375 -0.125 L 1.953125 -0.125 C 2.015625 -0.125 2.066406 -0.132812 2.109375 -0.15625 C 2.148438 -0.1875 2.171875 -0.242188 2.171875 -0.328125 L 2.171875 -1.953125 L 1.46875 0 L 1.296875 0 L 0.59375 -1.953125 L 0.59375 -0.34375 C 0.59375 -0.25 0.609375 -0.1875 0.640625 -0.15625 C 0.679688 -0.132812 0.738281 -0.125 0.8125 -0.125 L 0.828125 -0.125 L 0.828125 0 Z "/>
</g>
<g id="glyph-0-10">
<path d="M 0.5 -1.953125 C 0.445312 -1.953125 0.398438 -1.960938 0.359375 -1.984375 C 0.328125 -2.015625 0.3125 -2.066406 0.3125 -2.140625 C 0.3125 -2.210938 0.328125 -2.257812 0.359375 -2.28125 C 0.398438 -2.3125 0.445312 -2.328125 0.5 -2.328125 C 0.539062 -2.328125 0.578125 -2.3125 0.609375 -2.28125 C 0.648438 -2.257812 0.671875 -2.210938 0.671875 -2.140625 C 0.671875 -2.066406 0.648438 -2.015625 0.609375 -1.984375 C 0.578125 -1.960938 0.539062 -1.953125 0.5 -1.953125 Z M 0.078125 0 L 0.078125 -0.125 L 0.109375 -0.125 C 0.179688 -0.125 0.238281 -0.132812 0.28125 -0.15625 C 0.332031 -0.1875 0.359375 -0.242188 0.359375 -0.328125 L 0.359375 -1.296875 C 0.359375 -1.390625 0.332031 -1.445312 0.28125 -1.46875 C 0.238281 -1.5 0.179688 -1.515625 0.109375 -1.515625 L 0.09375 -1.515625 L 0.09375 -1.640625 L 0.65625 -1.640625 L 0.65625 -0.34375 C 0.65625 -0.25 0.675781 -0.1875 0.71875 -0.15625 C 0.769531 -0.132812 0.832031 -0.125 0.90625 -0.125 L 0.9375 -0.125 L 0.9375 0 Z "/>
</g>
<g id="glyph-0-11">
<path d="M 0.015625 0 L 0.015625 -0.125 L 0.046875 -0.125 C 0.117188 -0.125 0.175781 -0.140625 0.21875 -0.171875 C 0.257812 -0.203125 0.3125 -0.253906 0.375 -0.328125 L 0.765625 -0.828125 L 0.375 -1.34375 C 0.332031 -1.40625 0.289062 -1.445312 0.25 -1.46875 C 0.207031 -1.5 0.160156 -1.515625 0.109375 -1.515625 L 0.078125 -1.515625 L 0.078125 -1.640625 L 0.84375 -1.640625 L 0.84375 -1.515625 C 0.769531 -1.515625 0.722656 -1.503906 0.703125 -1.484375 C 0.679688 -1.460938 0.671875 -1.441406 0.671875 -1.421875 C 0.671875 -1.398438 0.675781 -1.378906 0.6875 -1.359375 C 0.695312 -1.335938 0.710938 -1.3125 0.734375 -1.28125 L 0.9375 -1 L 1.09375 -1.234375 C 1.125 -1.273438 1.144531 -1.3125 1.15625 -1.34375 C 1.164062 -1.375 1.171875 -1.398438 1.171875 -1.421875 C 1.171875 -1.460938 1.15625 -1.488281 1.125 -1.5 C 1.09375 -1.507812 1.054688 -1.515625 1.015625 -1.515625 L 1 -1.515625 L 1 -1.640625 L 1.671875 -1.640625 L 1.671875 -1.515625 L 1.640625 -1.515625 C 1.585938 -1.515625 1.535156 -1.5 1.484375 -1.46875 C 1.441406 -1.445312 1.390625 -1.394531 1.328125 -1.3125 L 1.015625 -0.890625 L 1.46875 -0.296875 C 1.507812 -0.234375 1.550781 -0.1875 1.59375 -0.15625 C 1.632812 -0.132812 1.675781 -0.125 1.71875 -0.125 L 1.75 -0.125 L 1.75 0 L 0.96875 0 L 0.96875 -0.125 L 0.984375 -0.125 C 1.097656 -0.125 1.15625 -0.160156 1.15625 -0.234375 C 1.15625 -0.253906 1.148438 -0.273438 1.140625 -0.296875 C 1.128906 -0.328125 1.097656 -0.375 1.046875 -0.4375 L 0.84375 -0.71875 L 0.625 -0.421875 C 0.601562 -0.390625 0.582031 -0.351562 0.5625 -0.3125 C 0.550781 -0.28125 0.546875 -0.25 0.546875 -0.21875 C 0.546875 -0.1875 0.5625 -0.160156 0.59375 -0.140625 C 0.625 -0.128906 0.671875 -0.125 0.734375 -0.125 L 0.75 -0.125 L 0.75 0 Z "/>
</g>
<g id="glyph-0-12">
<path d="M 0.234375 -1.34375 C 0.210938 -1.414062 0.1875 -1.460938 0.15625 -1.484375 C 0.125 -1.503906 0.078125 -1.515625 0.015625 -1.515625 L 0.015625 -1.640625 L 0.78125 -1.640625 L 0.78125 -1.515625 L 0.734375 -1.515625 C 0.609375 -1.515625 0.546875 -1.460938 0.546875 -1.359375 C 0.546875 -1.347656 0.546875 -1.332031 0.546875 -1.3125 C 0.554688 -1.289062 0.566406 -1.269531 0.578125 -1.25 L 0.78125 -0.671875 C 0.8125 -0.597656 0.835938 -0.515625 0.859375 -0.421875 C 0.890625 -0.335938 0.914062 -0.269531 0.9375 -0.21875 C 0.945312 -0.257812 0.96875 -0.320312 1 -0.40625 C 1.03125 -0.488281 1.054688 -0.566406 1.078125 -0.640625 L 1.296875 -1.234375 C 1.316406 -1.273438 1.328125 -1.316406 1.328125 -1.359375 C 1.328125 -1.460938 1.257812 -1.515625 1.125 -1.515625 L 1.109375 -1.515625 L 1.109375 -1.640625 L 1.765625 -1.640625 L 1.765625 -1.515625 L 1.734375 -1.515625 C 1.671875 -1.515625 1.625 -1.5 1.59375 -1.46875 C 1.5625 -1.4375 1.53125 -1.375 1.5 -1.28125 L 1.015625 0 L 0.734375 0 Z "/>
</g>
<g id="glyph-0-13">
<path d="M 0.453125 0 L 0.453125 -0.125 L 0.53125 -0.125 C 0.59375 -0.125 0.648438 -0.132812 0.703125 -0.15625 C 0.753906 -0.1875 0.78125 -0.242188 0.78125 -0.328125 L 0.78125 -2.03125 L 0.484375 -2.03125 C 0.398438 -2.03125 0.335938 -2.003906 0.296875 -1.953125 C 0.265625 -1.910156 0.242188 -1.851562 0.234375 -1.78125 L 0.21875 -1.65625 L 0.0625 -1.65625 L 0.078125 -2.1875 L 1.796875 -2.1875 L 1.8125 -1.65625 L 1.65625 -1.65625 L 1.640625 -1.78125 C 1.628906 -1.851562 1.609375 -1.910156 1.578125 -1.953125 C 1.546875 -2.003906 1.484375 -2.03125 1.390625 -2.03125 L 1.09375 -2.03125 L 1.09375 -0.34375 C 1.09375 -0.25 1.113281 -0.1875 1.15625 -0.15625 C 1.207031 -0.132812 1.269531 -0.125 1.34375 -0.125 L 1.40625 -0.125 L 1.40625 0 Z "/>
</g>
<g id="glyph-0-14">
<path d="M 0.109375 0.59375 C 0.253906 0.59375 0.367188 0.566406 0.453125 0.515625 C 0.546875 0.460938 0.617188 0.390625 0.671875 0.296875 C 0.722656 0.203125 0.769531 0.0976562 0.8125 -0.015625 L 0.234375 -1.34375 C 0.210938 -1.414062 0.1875 -1.460938 0.15625 -1.484375 C 0.125 -1.503906 0.078125 -1.515625 0.015625 -1.515625 L 0.015625 -1.640625 L 0.75 -1.640625 L 0.75 -1.515625 L 0.734375 -1.515625 C 0.609375 -1.515625 0.546875 -1.460938 0.546875 -1.359375 C 0.546875 -1.328125 0.554688 -1.289062 0.578125 -1.25 L 0.796875 -0.703125 C 0.816406 -0.660156 0.835938 -0.609375 0.859375 -0.546875 C 0.878906 -0.492188 0.894531 -0.441406 0.90625 -0.390625 C 0.925781 -0.335938 0.941406 -0.296875 0.953125 -0.265625 C 0.960938 -0.328125 0.976562 -0.390625 1 -0.453125 C 1.03125 -0.515625 1.054688 -0.578125 1.078125 -0.640625 L 1.28125 -1.234375 C 1.289062 -1.273438 1.296875 -1.316406 1.296875 -1.359375 C 1.296875 -1.460938 1.234375 -1.515625 1.109375 -1.515625 L 1.09375 -1.515625 L 1.09375 -1.640625 L 1.734375 -1.640625 L 1.734375 -1.515625 L 1.71875 -1.515625 C 1.65625 -1.515625 1.609375 -1.5 1.578125 -1.46875 C 1.554688 -1.4375 1.523438 -1.375 1.484375 -1.28125 L 1.015625 0.015625 C 0.960938 0.160156 0.910156 0.28125 0.859375 0.375 C 0.816406 0.46875 0.765625 0.539062 0.703125 0.59375 C 0.640625 0.644531 0.5625 0.679688 0.46875 0.703125 C 0.382812 0.722656 0.273438 0.734375 0.140625 0.734375 L 0.109375 0.734375 Z "/>
</g>
<g id="glyph-0-15">
<path d="M 0.0625 0.734375 L 0.0625 0.609375 L 0.078125 0.609375 C 0.148438 0.609375 0.207031 0.59375 0.25 0.5625 C 0.300781 0.539062 0.328125 0.484375 0.328125 0.390625 L 0.328125 -1.296875 C 0.328125 -1.390625 0.300781 -1.445312 0.25 -1.46875 C 0.207031 -1.5 0.148438 -1.515625 0.078125 -1.515625 L 0.046875 -1.515625 L 0.046875 -1.640625 L 0.578125 -1.640625 L 0.609375 -1.359375 L 0.625 -1.359375 C 0.664062 -1.453125 0.722656 -1.523438 0.796875 -1.578125 C 0.867188 -1.640625 0.96875 -1.671875 1.09375 -1.671875 C 1.289062 -1.671875 1.441406 -1.601562 1.546875 -1.46875 C 1.660156 -1.332031 1.71875 -1.117188 1.71875 -0.828125 C 1.71875 -0.523438 1.660156 -0.304688 1.546875 -0.171875 C 1.441406 -0.0351562 1.289062 0.03125 1.09375 0.03125 C 0.96875 0.03125 0.867188 0.00390625 0.796875 -0.046875 C 0.722656 -0.0976562 0.664062 -0.160156 0.625 -0.234375 L 0.609375 -0.234375 C 0.609375 -0.179688 0.609375 -0.117188 0.609375 -0.046875 C 0.617188 0.015625 0.625 0.0664062 0.625 0.109375 L 0.625 0.40625 C 0.625 0.488281 0.644531 0.539062 0.6875 0.5625 C 0.738281 0.59375 0.800781 0.609375 0.875 0.609375 L 0.875 0.734375 Z M 1.03125 -0.171875 C 1.164062 -0.171875 1.265625 -0.222656 1.328125 -0.328125 C 1.390625 -0.441406 1.421875 -0.609375 1.421875 -0.828125 C 1.421875 -1.046875 1.390625 -1.207031 1.328125 -1.3125 C 1.265625 -1.414062 1.164062 -1.46875 1.03125 -1.46875 C 0.875 -1.46875 0.765625 -1.414062 0.703125 -1.3125 C 0.648438 -1.207031 0.625 -1.046875 0.625 -0.828125 C 0.625 -0.609375 0.648438 -0.441406 0.703125 -0.328125 C 0.765625 -0.222656 0.875 -0.171875 1.03125 -0.171875 Z "/>
</g>
<g id="glyph-0-16">
<path d="M 0.046875 0 L 0.046875 -0.125 L 0.078125 -0.125 C 0.148438 -0.125 0.207031 -0.132812 0.25 -0.15625 C 0.300781 -0.1875 0.328125 -0.25 0.328125 -0.34375 L 0.328125 -1.984375 C 0.328125 -2.078125 0.300781 -2.132812 0.25 -2.15625 C 0.207031 -2.1875 0.148438 -2.203125 0.078125 -2.203125 L 0.046875 -2.203125 L 0.046875 -2.328125 L 0.625 -2.328125 L 0.625 -0.34375 C 0.625 -0.25 0.644531 -0.1875 0.6875 -0.15625 C 0.738281 -0.132812 0.800781 -0.125 0.875 -0.125 L 0.90625 -0.125 L 0.90625 0 Z "/>
</g>
<g id="glyph-0-17">
<path d="M 0.625 0.03125 C 0.488281 0.03125 0.375 -0.00390625 0.28125 -0.078125 C 0.195312 -0.160156 0.15625 -0.285156 0.15625 -0.453125 C 0.15625 -0.617188 0.210938 -0.738281 0.328125 -0.8125 C 0.441406 -0.894531 0.613281 -0.941406 0.84375 -0.953125 L 1.109375 -0.953125 L 1.109375 -1.140625 C 1.109375 -1.210938 1.097656 -1.273438 1.078125 -1.328125 C 1.066406 -1.390625 1.039062 -1.4375 1 -1.46875 C 0.96875 -1.5 0.910156 -1.515625 0.828125 -1.515625 C 0.742188 -1.515625 0.679688 -1.5 0.640625 -1.46875 C 0.597656 -1.445312 0.570312 -1.410156 0.5625 -1.359375 C 0.550781 -1.304688 0.546875 -1.25 0.546875 -1.1875 C 0.453125 -1.1875 0.382812 -1.203125 0.34375 -1.234375 C 0.300781 -1.265625 0.28125 -1.3125 0.28125 -1.375 C 0.28125 -1.445312 0.304688 -1.503906 0.359375 -1.546875 C 0.410156 -1.585938 0.476562 -1.617188 0.5625 -1.640625 C 0.644531 -1.660156 0.734375 -1.671875 0.828125 -1.671875 C 1.015625 -1.671875 1.15625 -1.628906 1.25 -1.546875 C 1.34375 -1.472656 1.390625 -1.335938 1.390625 -1.140625 L 1.390625 -0.34375 C 1.390625 -0.257812 1.40625 -0.203125 1.4375 -0.171875 C 1.46875 -0.140625 1.515625 -0.125 1.578125 -0.125 L 1.59375 -0.125 L 1.59375 0 L 1.171875 0 L 1.125 -0.265625 L 1.109375 -0.265625 C 1.066406 -0.203125 1.023438 -0.148438 0.984375 -0.109375 C 0.941406 -0.0664062 0.890625 -0.03125 0.828125 0 C 0.773438 0.0195312 0.707031 0.03125 0.625 0.03125 Z M 0.703125 -0.15625 C 0.828125 -0.15625 0.925781 -0.191406 1 -0.265625 C 1.070312 -0.347656 1.109375 -0.453125 1.109375 -0.578125 L 1.109375 -0.828125 L 0.90625 -0.828125 C 0.738281 -0.816406 0.617188 -0.78125 0.546875 -0.71875 C 0.484375 -0.65625 0.453125 -0.5625 0.453125 -0.4375 C 0.453125 -0.25 0.535156 -0.15625 0.703125 -0.15625 Z "/>
</g>
<g id="glyph-0-18">
<path d="M 0.84375 0.03125 C 0.675781 0.03125 0.546875 -0.015625 0.453125 -0.109375 C 0.367188 -0.203125 0.328125 -0.351562 0.328125 -0.5625 L 0.328125 -1.296875 C 0.328125 -1.390625 0.300781 -1.445312 0.25 -1.46875 C 0.207031 -1.5 0.148438 -1.515625 0.078125 -1.515625 L 0.078125 -1.640625 L 0.625 -1.640625 L 0.625 -0.578125 C 0.625 -0.453125 0.644531 -0.351562 0.6875 -0.28125 C 0.726562 -0.207031 0.8125 -0.171875 0.9375 -0.171875 C 1.070312 -0.171875 1.171875 -0.210938 1.234375 -0.296875 C 1.296875 -0.390625 1.328125 -0.507812 1.328125 -0.65625 L 1.328125 -1.296875 C 1.328125 -1.390625 1.300781 -1.445312 1.25 -1.46875 C 1.195312 -1.5 1.140625 -1.515625 1.078125 -1.515625 L 1.0625 -1.515625 L 1.0625 -1.640625 L 1.609375 -1.640625 L 1.609375 -0.328125 C 1.609375 -0.242188 1.632812 -0.1875 1.6875 -0.15625 C 1.738281 -0.132812 1.796875 -0.125 1.859375 -0.125 L 1.875 -0.125 L 1.875 0 L 1.390625 0 L 1.34375 -0.25 L 1.328125 -0.25 C 1.265625 -0.132812 1.191406 -0.0546875 1.109375 -0.015625 C 1.023438 0.015625 0.9375 0.03125 0.84375 0.03125 Z "/>
</g>
<g id="glyph-0-19">
<path d="M 1.09375 0.03125 C 0.96875 0.03125 0.867188 0.00390625 0.796875 -0.046875 C 0.722656 -0.0976562 0.664062 -0.160156 0.625 -0.234375 L 0.59375 -0.234375 L 0.546875 0 L 0.0625 0 L 0.0625 -0.125 L 0.078125 -0.125 C 0.148438 -0.125 0.207031 -0.132812 0.25 -0.15625 C 0.300781 -0.1875 0.328125 -0.25 0.328125 -0.34375 L 0.328125 -1.984375 C 0.328125 -2.078125 0.300781 -2.132812 0.25 -2.15625 C 0.207031 -2.1875 0.148438 -2.203125 0.078125 -2.203125 L 0.0625 -2.203125 L 0.0625 -2.328125 L 0.625 -2.328125 L 0.625 -1.765625 C 0.625 -1.734375 0.617188 -1.6875 0.609375 -1.625 C 0.609375 -1.570312 0.609375 -1.519531 0.609375 -1.46875 C 0.609375 -1.425781 0.609375 -1.390625 0.609375 -1.359375 L 0.625 -1.359375 C 0.664062 -1.453125 0.722656 -1.523438 0.796875 -1.578125 C 0.867188 -1.640625 0.96875 -1.671875 1.09375 -1.671875 C 1.289062 -1.671875 1.441406 -1.601562 1.546875 -1.46875 C 1.660156 -1.332031 1.71875 -1.117188 1.71875 -0.828125 C 1.71875 -0.523438 1.660156 -0.304688 1.546875 -0.171875 C 1.441406 -0.0351562 1.289062 0.03125 1.09375 0.03125 Z M 1.03125 -0.171875 C 1.164062 -0.171875 1.265625 -0.222656 1.328125 -0.328125 C 1.390625 -0.441406 1.421875 -0.609375 1.421875 -0.828125 C 1.421875 -1.046875 1.390625 -1.207031 1.328125 -1.3125 C 1.265625 -1.414062 1.164062 -1.46875 1.03125 -1.46875 C 0.875 -1.46875 0.765625 -1.414062 0.703125 -1.3125 C 0.648438 -1.207031 0.625 -1.046875 0.625 -0.828125 C 0.625 -0.609375 0.648438 -0.441406 0.703125 -0.328125 C 0.765625 -0.222656 0.875 -0.171875 1.03125 -0.171875 Z "/>
</g>
<g id="glyph-0-20">
<path d="M 0.09375 0.25 C 0.238281 0.164062 0.34375 0.0625 0.40625 -0.0625 C 0.476562 -0.195312 0.519531 -0.34375 0.53125 -0.5 C 0.550781 -0.65625 0.5625 -0.8125 0.5625 -0.96875 C 0.5625 -1.132812 0.550781 -1.289062 0.53125 -1.4375 C 0.519531 -1.59375 0.476562 -1.734375 0.40625 -1.859375 C 0.34375 -1.992188 0.238281 -2.101562 0.09375 -2.1875 L 0.09375 -2.328125 C 0.28125 -2.253906 0.429688 -2.15625 0.546875 -2.03125 C 0.660156 -1.914062 0.742188 -1.769531 0.796875 -1.59375 C 0.859375 -1.425781 0.890625 -1.21875 0.890625 -0.96875 C 0.890625 -0.726562 0.859375 -0.519531 0.796875 -0.34375 C 0.742188 -0.164062 0.660156 -0.0195312 0.546875 0.09375 C 0.429688 0.21875 0.28125 0.316406 0.09375 0.390625 Z "/>
</g>
</g>
</defs>
<g fill="rgb(94.509804%, 96.078431%, 97.647059%)" fill-opacity="1">
<use xlink:href="#glyph-0-0" x="30" y="23.266602"/>
<use xlink:href="#glyph-0-1" x="32" y="23.266602"/>
<use xlink:href="#glyph-0-2" x="34" y="23.266602"/>
<use xlink:href="#glyph-0-1" x="35" y="23.266602"/>
<use xlink:href="#glyph-0-3" x="37" y="23.266602"/>
<use xlink:href="#glyph-0-4" x="38" y="23.266602"/>
<use xlink:href="#glyph-0-5" x="40" y="23.266602"/>
<use xlink:href="#glyph-0-1" x="42" y="23.266602"/>
<use xlink:href="#glyph-0-6" x="44" y="23.266602"/>
<use xlink:href="#glyph-0-7" x="46" y="23.266602"/>
<use xlink:href="#glyph-0-8" x="47" y="23.266602"/>
<use xlink:href="#glyph-0-9" x="48" y="23.266602"/>
<use xlink:href="#glyph-0-10" x="51" y="23.266602"/>
<use xlink:href="#glyph-0-11" x="52" y="23.266602"/>
<use xlink:href="#glyph-0-7" x="54" y="23.266602"/>
<use xlink:href="#glyph-0-12" x="55" y="23.266602"/>
<use xlink:href="#glyph-0-4" x="57" y="23.266602"/>
<use xlink:href="#glyph-0-6" x="59" y="23.266602"/>
<use xlink:href="#glyph-0-7" x="61" y="23.266602"/>
<use xlink:href="#glyph-0-13" x="62" y="23.266602"/>
<use xlink:href="#glyph-0-14" x="64" y="23.266602"/>
<use xlink:href="#glyph-0-15" x="66" y="23.266602"/>
<use xlink:href="#glyph-0-1" x="68" y="23.266602"/>
<use xlink:href="#glyph-0-6" x="70" y="23.266602"/>
<use xlink:href="#glyph-0-7" x="72" y="23.266602"/>
<use xlink:href="#glyph-0-1" x="73" y="23.266602"/>
<use xlink:href="#glyph-0-3" x="75" y="23.266602"/>
<use xlink:href="#glyph-0-16" x="76" y="23.266602"/>
<use xlink:href="#glyph-0-17" x="77" y="23.266602"/>
<use xlink:href="#glyph-0-18" x="79" y="23.266602"/>
<use xlink:href="#glyph-0-19" x="81" y="23.266602"/>
<use xlink:href="#glyph-0-2" x="83" y="23.266602"/>
<use xlink:href="#glyph-0-20" x="84" y="23.266602"/>
</g>
</svg>
