<?xml version="1.0" encoding="UTF-8"?>
<svg xmlns="http://www.w3.org/2000/svg" xmlns:xlink="http://www.w3.org/1999/xlink" width="854" height="480" viewBox="0 0 854 480">
<defs>
<g>
<g id="glyph-0-0">
<path d="M 0.734375 -1.296875 C 0.773438 -1.296875 0.804688 -1.257812 0.828125 -1.1875 C 0.867188 -1.050781 0.898438 -0.984375 0.921875 -0.984375 C 0.941406 -0.984375 0.957031 -1 0.96875 -1.03125 C 1.269531 -1.46875 1.550781 -1.785156 1.8125 -1.984375 C 1.925781 -2.054688 2.035156 -2.09375 2.140625 -2.09375 C 2.273438 -2.09375 2.351562 -2.09375 2.375 -2.09375 C 2.394531 -2.082031 2.40625 -2.066406 2.40625 -2.046875 C 2.40625 -2.023438 2.390625 -2 2.359375 -1.96875 C 1.660156 -1.175781 1.25 -0.65625 1.125 -0.40625 C 1.070312 -0.332031 0.960938 -0.296875 0.796875 -0.296875 C 0.742188 -0.296875 0.6875 -0.304688 0.625 -0.328125 C 0.601562 -0.335938 0.5625 -0.421875 0.5 -0.578125 C 0.425781 -0.773438 0.390625 -0.945312 0.390625 -1.09375 C 0.390625 -1.144531 0.425781 -1.1875 0.5 -1.21875 C 0.601562 -1.269531 0.679688 -1.296875 0.734375 -1.296875 Z "/>
</g>
<g id="glyph-1-0">
</g>
<g id="glyph-1-1">
<path d="M 0.09375 0 L 0.09375 -0.171875 L 0.234375 -0.171875 C 0.285156 -0.171875 0.328125 -0.179688 0.359375 -0.203125 C 0.390625 -0.234375 0.40625 -0.296875 0.40625 -0.390625 L 0.40625 -2 C 0.40625 -2.082031 0.382812 -2.132812 0.34375 -2.15625 C 0.3125 -2.1875 0.273438 -2.203125 0.234375 -2.203125 L 0.09375 -2.203125 L 0.09375 -2.375 L 1.1875 -2.375 C 1.5625 -2.375 1.851562 -2.273438 2.0625 -2.078125 C 2.269531 -1.890625 2.375 -1.609375 2.375 -1.234375 C 2.375 -0.992188 2.328125 -0.78125 2.234375 -0.59375 C 2.148438 -0.40625 2.019531 -0.257812 1.84375 -0.15625 C 1.664062 -0.0507812 1.445312 0 1.1875 0 Z M 1.109375 -0.203125 C 1.335938 -0.203125 1.507812 -0.289062 1.625 -0.46875 C 1.75 -0.65625 1.8125 -0.910156 1.8125 -1.234375 C 1.8125 -1.546875 1.75 -1.78125 1.625 -1.9375 C 1.507812 -2.09375 1.34375 -2.171875 1.125 -2.171875 L 0.921875 -2.171875 L 0.921875 -0.203125 Z "/>
</g>
<g id="glyph-1-2">
<path d="M 1.015625 0.03125 C 0.734375 0.03125 0.519531 -0.046875 0.375 -0.203125 C 0.226562 -0.367188 0.15625 -0.59375 0.15625 -0.875 C 0.15625 -1.1875 0.226562 -1.421875 0.375 -1.578125 C 0.519531 -1.742188 0.722656 -1.828125 0.984375 -1.828125 C 1.222656 -1.828125 1.410156 -1.757812 1.546875 -1.625 C 1.691406 -1.488281 1.765625 -1.289062 1.765625 -1.03125 L 1.765625 -0.859375 L 0.671875 -0.859375 C 0.671875 -0.628906 0.707031 -0.460938 0.78125 -0.359375 C 0.863281 -0.265625 0.972656 -0.21875 1.109375 -0.21875 C 1.222656 -0.21875 1.320312 -0.242188 1.40625 -0.296875 C 1.488281 -0.347656 1.546875 -0.410156 1.578125 -0.484375 C 1.640625 -0.453125 1.671875 -0.398438 1.671875 -0.328125 C 1.671875 -0.234375 1.617188 -0.148438 1.515625 -0.078125 C 1.410156 -0.00390625 1.242188 0.03125 1.015625 0.03125 Z M 1.25 -1.0625 C 1.25 -1.238281 1.226562 -1.375 1.1875 -1.46875 C 1.144531 -1.5625 1.078125 -1.609375 0.984375 -1.609375 C 0.890625 -1.609375 0.816406 -1.5625 0.765625 -1.46875 C 0.710938 -1.375 0.679688 -1.238281 0.671875 -1.0625 Z "/>
</g>
<g id="glyph-1-3">
<path d="M 0.0625 0 L 0.0625 -0.171875 L 0.078125 -0.171875 C 0.148438 -0.171875 0.207031 -0.1875 0.25 -0.21875 C 0.300781 -0.25 0.328125 -0.316406 0.328125 -0.421875 L 0.328125 -1.375 C 0.328125 -1.476562 0.304688 -1.539062 0.265625 -1.5625 C 0.222656 -1.59375 0.164062 -1.609375 0.09375 -1.609375 L 0.078125 -1.609375 L 0.078125 -1.78125 L 0.75 -1.78125 L 0.828125 -1.53125 L 0.84375 -1.53125 C 0.882812 -1.625 0.9375 -1.695312 1 -1.75 C 1.070312 -1.800781 1.175781 -1.828125 1.3125 -1.828125 C 1.5625 -1.828125 1.6875 -1.734375 1.6875 -1.546875 C 1.6875 -1.453125 1.648438 -1.375 1.578125 -1.3125 C 1.503906 -1.257812 1.398438 -1.234375 1.265625 -1.234375 C 1.265625 -1.328125 1.253906 -1.394531 1.234375 -1.4375 C 1.210938 -1.476562 1.171875 -1.5 1.109375 -1.5 C 1.046875 -1.5 0.992188 -1.476562 0.953125 -1.4375 C 0.921875 -1.40625 0.894531 -1.359375 0.875 -1.296875 C 0.863281 -1.242188 0.851562 -1.1875 0.84375 -1.125 C 0.84375 -1.0625 0.84375 -1.007812 0.84375 -0.96875 L 0.84375 -0.40625 C 0.84375 -0.300781 0.863281 -0.234375 0.90625 -0.203125 C 0.945312 -0.179688 1.003906 -0.171875 1.078125 -0.171875 L 1.171875 -0.171875 L 1.171875 0 Z "/>
</g>
<g id="glyph-1-4">
<path d="M 1.328125 0.03125 C 1.078125 0.03125 0.863281 -0.015625 0.6875 -0.109375 C 0.519531 -0.210938 0.394531 -0.359375 0.3125 -0.546875 C 0.226562 -0.734375 0.1875 -0.945312 0.1875 -1.1875 C 0.1875 -1.425781 0.226562 -1.632812 0.3125 -1.8125 C 0.394531 -2 0.519531 -2.144531 0.6875 -2.25 C 0.863281 -2.351562 1.078125 -2.40625 1.328125 -2.40625 C 1.585938 -2.40625 1.78125 -2.367188 1.90625 -2.296875 C 2.03125 -2.222656 2.09375 -2.132812 2.09375 -2.03125 C 2.09375 -1.945312 2.054688 -1.875 1.984375 -1.8125 C 1.910156 -1.757812 1.804688 -1.734375 1.671875 -1.734375 C 1.671875 -1.804688 1.660156 -1.878906 1.640625 -1.953125 C 1.617188 -2.023438 1.582031 -2.082031 1.53125 -2.125 C 1.476562 -2.175781 1.40625 -2.203125 1.3125 -2.203125 C 1.09375 -2.203125 0.941406 -2.113281 0.859375 -1.9375 C 0.773438 -1.757812 0.734375 -1.507812 0.734375 -1.1875 C 0.734375 -0.863281 0.785156 -0.625 0.890625 -0.46875 C 0.992188 -0.3125 1.171875 -0.234375 1.421875 -0.234375 C 1.523438 -0.234375 1.613281 -0.25 1.6875 -0.28125 C 1.769531 -0.3125 1.835938 -0.347656 1.890625 -0.390625 C 1.941406 -0.441406 1.988281 -0.492188 2.03125 -0.546875 C 2.070312 -0.515625 2.09375 -0.46875 2.09375 -0.40625 C 2.09375 -0.34375 2.066406 -0.273438 2.015625 -0.203125 C 1.972656 -0.140625 1.894531 -0.0820312 1.78125 -0.03125 C 1.675781 0.0078125 1.523438 0.03125 1.328125 0.03125 Z "/>
</g>
<g id="glyph-1-5">
<path d="M 1.015625 0.03125 C 0.742188 0.03125 0.53125 -0.0390625 0.375 -0.1875 C 0.226562 -0.34375 0.15625 -0.582031 0.15625 -0.90625 C 0.15625 -1.21875 0.226562 -1.445312 0.375 -1.59375 C 0.519531 -1.75 0.738281 -1.828125 1.03125 -1.828125 C 1.289062 -1.828125 1.5 -1.75 1.65625 -1.59375 C 1.8125 -1.445312 1.890625 -1.21875 1.890625 -0.90625 C 1.890625 -0.582031 1.8125 -0.34375 1.65625 -0.1875 C 1.507812 -0.0390625 1.296875 0.03125 1.015625 0.03125 Z M 1.015625 -0.171875 C 1.148438 -0.171875 1.242188 -0.234375 1.296875 -0.359375 C 1.347656 -0.484375 1.375 -0.664062 1.375 -0.90625 C 1.375 -1.132812 1.347656 -1.304688 1.296875 -1.421875 C 1.242188 -1.546875 1.148438 -1.609375 1.015625 -1.609375 C 0.890625 -1.609375 0.800781 -1.546875 0.75 -1.421875 C 0.695312 -1.304688 0.671875 -1.132812 0.671875 -0.90625 C 0.671875 -0.664062 0.695312 -0.484375 0.75 -0.359375 C 0.800781 -0.234375 0.890625 -0.171875 1.015625 -0.171875 Z "/>
</g>
<g id="glyph-1-6">
<path d="M 0.0625 0 L 0.0625 -0.171875 L 0.078125 -0.171875 C 0.148438 -0.171875 0.207031 -0.179688 0.25 -0.203125 C 0.300781 -0.234375 0.328125 -0.300781 0.328125 -0.40625 L 0.328125 -1.40625 C 0.328125 -1.5 0.304688 -1.554688 0.265625 -1.578125 C 0.222656 -1.609375 0.164062 -1.625 0.09375 -1.625 L 0.078125 -1.625 L 0.078125 -1.78125 L 0.78125 -1.78125 L 0.828125 -1.546875 L 0.84375 -1.546875 C 0.882812 -1.628906 0.929688 -1.691406 0.984375 -1.734375 C 1.035156 -1.773438 1.09375 -1.800781 1.15625 -1.8125 C 1.21875 -1.820312 1.28125 -1.828125 1.34375 -1.828125 C 1.46875 -1.828125 1.570312 -1.800781 1.65625 -1.75 C 1.75 -1.707031 1.816406 -1.640625 1.859375 -1.546875 L 1.890625 -1.546875 C 1.929688 -1.628906 1.976562 -1.691406 2.03125 -1.734375 C 2.082031 -1.773438 2.140625 -1.800781 2.203125 -1.8125 C 2.273438 -1.820312 2.34375 -1.828125 2.40625 -1.828125 C 2.582031 -1.828125 2.71875 -1.773438 2.8125 -1.671875 C 2.914062 -1.566406 2.96875 -1.40625 2.96875 -1.1875 L 2.96875 -0.40625 C 2.96875 -0.3125 2.984375 -0.25 3.015625 -0.21875 C 3.054688 -0.1875 3.113281 -0.171875 3.1875 -0.171875 L 3.1875 0 L 2.453125 0 L 2.453125 -1.09375 C 2.453125 -1.238281 2.429688 -1.347656 2.390625 -1.421875 C 2.359375 -1.503906 2.289062 -1.546875 2.1875 -1.546875 C 2.125 -1.546875 2.066406 -1.523438 2.015625 -1.484375 C 1.972656 -1.441406 1.941406 -1.382812 1.921875 -1.3125 C 1.910156 -1.238281 1.90625 -1.15625 1.90625 -1.0625 L 1.90625 -0.40625 C 1.90625 -0.3125 1.921875 -0.25 1.953125 -0.21875 C 1.992188 -0.1875 2.050781 -0.171875 2.125 -0.171875 L 2.140625 -0.171875 L 2.140625 0 L 1.390625 0 L 1.390625 -1.09375 C 1.390625 -1.238281 1.367188 -1.347656 1.328125 -1.421875 C 1.296875 -1.503906 1.226562 -1.546875 1.125 -1.546875 C 1.050781 -1.546875 0.992188 -1.519531 0.953125 -1.46875 C 0.910156 -1.425781 0.878906 -1.363281 0.859375 -1.28125 C 0.847656 -1.207031 0.84375 -1.125 0.84375 -1.03125 L 0.84375 -0.390625 C 0.84375 -0.296875 0.863281 -0.234375 0.90625 -0.203125 C 0.945312 -0.179688 1.003906 -0.171875 1.078125 -0.171875 L 1.09375 -0.171875 L 1.09375 0 Z "/>
</g>
<g id="glyph-1-7">
<path d="M 0.046875 0.796875 L 0.046875 0.625 L 0.078125 0.625 C 0.117188 0.625 0.15625 0.617188 0.1875 0.609375 C 0.226562 0.597656 0.257812 0.578125 0.28125 0.546875 C 0.300781 0.515625 0.3125 0.46875 0.3125 0.40625 L 0.3125 -1.375 C 0.3125 -1.476562 0.289062 -1.539062 0.25 -1.5625 C 0.207031 -1.59375 0.15625 -1.609375 0.09375 -1.609375 L 0.078125 -1.609375 L 0.078125 -1.78125 L 0.71875 -1.78125 L 0.78125 -1.53125 L 0.796875 -1.53125 C 0.847656 -1.613281 0.910156 -1.679688 0.984375 -1.734375 C 1.066406 -1.785156 1.175781 -1.8125 1.3125 -1.8125 C 1.53125 -1.8125 1.695312 -1.738281 1.8125 -1.59375 C 1.925781 -1.445312 1.984375 -1.210938 1.984375 -0.890625 C 1.984375 -0.566406 1.925781 -0.328125 1.8125 -0.171875 C 1.695312 -0.0234375 1.535156 0.046875 1.328125 0.046875 C 1.191406 0.046875 1.082031 0.0195312 1 -0.03125 C 0.925781 -0.0820312 0.867188 -0.144531 0.828125 -0.21875 L 0.796875 -0.21875 C 0.804688 -0.195312 0.8125 -0.15625 0.8125 -0.09375 C 0.8125 -0.0390625 0.8125 0.00390625 0.8125 0.046875 C 0.820312 0.0976562 0.828125 0.140625 0.828125 0.171875 L 0.828125 0.40625 C 0.828125 0.46875 0.835938 0.515625 0.859375 0.546875 C 0.890625 0.578125 0.921875 0.597656 0.953125 0.609375 C 0.992188 0.617188 1.03125 0.625 1.0625 0.625 L 1.140625 0.625 L 1.140625 0.796875 Z M 1.171875 -0.203125 C 1.273438 -0.203125 1.351562 -0.257812 1.40625 -0.375 C 1.457031 -0.488281 1.484375 -0.65625 1.484375 -0.875 C 1.484375 -1.101562 1.457031 -1.273438 1.40625 -1.390625 C 1.351562 -1.503906 1.273438 -1.5625 1.171875 -1.5625 C 1.035156 -1.5625 0.941406 -1.503906 0.890625 -1.390625 C 0.847656 -1.273438 0.828125 -1.109375 0.828125 -0.890625 C 0.828125 -0.660156 0.847656 -0.488281 0.890625 -0.375 C 0.941406 -0.257812 1.035156 -0.203125 1.171875 -0.203125 Z "/>
</g>
<g id="glyph-1-8">
<path d="M 0.5625 -2.078125 C 0.488281 -2.078125 0.421875 -2.097656 0.359375 -2.140625 C 0.304688 -2.179688 0.28125 -2.242188 0.28125 -2.328125 C 0.28125 -2.410156 0.304688 -2.46875 0.359375 -2.5 C 0.421875 -2.539062 0.488281 -2.5625 0.5625 -2.5625 C 0.644531 -2.5625 0.710938 -2.539062 0.765625 -2.5 C 0.828125 -2.46875 0.859375 -2.410156 0.859375 -2.328125 C 0.859375 -2.242188 0.828125 -2.179688 0.765625 -2.140625 C 0.710938 -2.097656 0.644531 -2.078125 0.5625 -2.078125 Z M 0.0625 0 L 0.0625 -0.171875 L 0.09375 -0.171875 C 0.125 -0.171875 0.15625 -0.175781 0.1875 -0.1875 C 0.226562 -0.195312 0.257812 -0.21875 0.28125 -0.25 C 0.3125 -0.28125 0.328125 -0.328125 0.328125 -0.390625 L 0.328125 -1.40625 C 0.328125 -1.46875 0.3125 -1.507812 0.28125 -1.53125 C 0.257812 -1.5625 0.226562 -1.582031 0.1875 -1.59375 C 0.15625 -1.601562 0.125 -1.609375 0.09375 -1.609375 L 0.0625 -1.609375 L 0.0625 -1.78125 L 0.84375 -1.78125 L 0.84375 -0.390625 C 0.84375 -0.328125 0.851562 -0.28125 0.875 -0.25 C 0.90625 -0.21875 0.9375 -0.195312 0.96875 -0.1875 C 1.007812 -0.175781 1.046875 -0.171875 1.078125 -0.171875 L 1.109375 -0.171875 L 1.109375 0 Z "/>
</g>
<g id="glyph-1-9">
<path d="M 0.0625 0 L 0.0625 -0.171875 L 0.09375 -0.171875 C 0.125 -0.171875 0.15625 -0.175781 0.1875 -0.1875 C 0.226562 -0.195312 0.257812 -0.21875 0.28125 -0.25 C 0.3125 -0.28125 0.328125 -0.328125 0.328125 -0.390625 L 0.328125 -2.15625 C 0.328125 -2.207031 0.3125 -2.25 0.28125 -2.28125 C 0.257812 -2.3125 0.226562 -2.332031 0.1875 -2.34375 C 0.15625 -2.351562 0.125 -2.359375 0.09375 -2.359375 L 0.0625 -2.359375 L 0.0625 -2.53125 L 0.84375 -2.53125 L 0.84375 -0.390625 C 0.84375 -0.328125 0.851562 -0.28125 0.875 -0.25 C 0.90625 -0.21875 0.9375 -0.195312 0.96875 -0.1875 C 1.007812 -0.175781 1.046875 -0.171875 1.078125 -0.171875 L 1.109375 -0.171875 L 1.109375 0 Z "/>
</g>
<g id="glyph-1-10">
<path d="M 0.78125 0.796875 C 0.257812 0.796875 0 0.644531 0 0.34375 C 0 0.21875 0.0351562 0.125 0.109375 0.0625 C 0.191406 0 0.304688 -0.0351562 0.453125 -0.046875 C 0.390625 -0.078125 0.332031 -0.113281 0.28125 -0.15625 C 0.238281 -0.207031 0.21875 -0.269531 0.21875 -0.34375 C 0.21875 -0.414062 0.242188 -0.476562 0.296875 -0.53125 C 0.347656 -0.59375 0.421875 -0.648438 0.515625 -0.703125 C 0.410156 -0.734375 0.328125 -0.789062 0.265625 -0.875 C 0.203125 -0.96875 0.171875 -1.082031 0.171875 -1.21875 C 0.171875 -1.40625 0.226562 -1.550781 0.34375 -1.65625 C 0.457031 -1.769531 0.628906 -1.828125 0.859375 -1.828125 C 0.941406 -1.828125 1.015625 -1.816406 1.078125 -1.796875 C 1.148438 -1.773438 1.210938 -1.75 1.265625 -1.71875 C 1.316406 -1.789062 1.367188 -1.835938 1.421875 -1.859375 C 1.472656 -1.890625 1.535156 -1.90625 1.609375 -1.90625 C 1.691406 -1.90625 1.75 -1.882812 1.78125 -1.84375 C 1.820312 -1.8125 1.84375 -1.769531 1.84375 -1.71875 C 1.84375 -1.664062 1.828125 -1.617188 1.796875 -1.578125 C 1.765625 -1.546875 1.703125 -1.53125 1.609375 -1.53125 C 1.609375 -1.570312 1.59375 -1.601562 1.5625 -1.625 C 1.539062 -1.65625 1.515625 -1.671875 1.484375 -1.671875 C 1.441406 -1.671875 1.40625 -1.660156 1.375 -1.640625 C 1.414062 -1.585938 1.453125 -1.519531 1.484375 -1.4375 C 1.515625 -1.363281 1.53125 -1.289062 1.53125 -1.21875 C 1.53125 -1.039062 1.476562 -0.894531 1.375 -0.78125 C 1.269531 -0.675781 1.097656 -0.625 0.859375 -0.625 C 0.835938 -0.625 0.804688 -0.625 0.765625 -0.625 C 0.722656 -0.632812 0.691406 -0.640625 0.671875 -0.640625 C 0.640625 -0.628906 0.609375 -0.609375 0.578125 -0.578125 C 0.554688 -0.546875 0.546875 -0.507812 0.546875 -0.46875 C 0.546875 -0.4375 0.5625 -0.410156 0.59375 -0.390625 C 0.625 -0.367188 0.660156 -0.359375 0.703125 -0.359375 L 1.109375 -0.359375 C 1.328125 -0.359375 1.488281 -0.3125 1.59375 -0.21875 C 1.695312 -0.132812 1.75 -0.015625 1.75 0.140625 C 1.75 0.347656 1.671875 0.507812 1.515625 0.625 C 1.359375 0.738281 1.113281 0.796875 0.78125 0.796875 Z M 0.859375 -0.828125 C 0.941406 -0.828125 1 -0.859375 1.03125 -0.921875 C 1.0625 -0.992188 1.078125 -1.09375 1.078125 -1.21875 C 1.078125 -1.34375 1.0625 -1.441406 1.03125 -1.515625 C 1 -1.585938 0.941406 -1.625 0.859375 -1.625 C 0.765625 -1.625 0.703125 -1.582031 0.671875 -1.5 C 0.640625 -1.425781 0.625 -1.332031 0.625 -1.21875 C 0.625 -1.09375 0.640625 -0.992188 0.671875 -0.921875 C 0.703125 -0.859375 0.765625 -0.828125 0.859375 -0.828125 Z M 0.796875 0.59375 C 0.984375 0.59375 1.117188 0.5625 1.203125 0.5 C 1.296875 0.445312 1.34375 0.367188 1.34375 0.265625 C 1.34375 0.191406 1.320312 0.140625 1.28125 0.109375 C 1.238281 0.0859375 1.171875 0.078125 1.078125 0.078125 L 0.703125 0.078125 C 0.648438 0.078125 0.601562 0.0820312 0.5625 0.09375 C 0.519531 0.101562 0.484375 0.125 0.453125 0.15625 C 0.421875 0.195312 0.40625 0.253906 0.40625 0.328125 C 0.40625 0.503906 0.535156 0.59375 0.796875 0.59375 Z "/>
</g>
<g id="glyph-1-11">
<path d="M 0.0625 0 L 0.0625 -0.171875 L 0.078125 -0.171875 C 0.148438 -0.171875 0.207031 -0.179688 0.25 -0.203125 C 0.300781 -0.234375 0.328125 -0.300781 0.328125 -0.40625 L 0.328125 -1.390625 C 0.328125 -1.484375 0.304688 -1.539062 0.265625 -1.5625 C 0.222656 -1.59375 0.164062 -1.609375 0.09375 -1.609375 L 0.078125 -1.609375 L 0.078125 -1.78125 L 0.78125 -1.78125 L 0.828125 -1.546875 L 0.84375 -1.546875 C 0.882812 -1.628906 0.929688 -1.691406 0.984375 -1.734375 C 1.035156 -1.773438 1.09375 -1.800781 1.15625 -1.8125 C 1.21875 -1.820312 1.28125 -1.828125 1.34375 -1.828125 C 1.519531 -1.828125 1.65625 -1.773438 1.75 -1.671875 C 1.851562 -1.566406 1.90625 -1.40625 1.90625 -1.1875 L 1.90625 -0.40625 C 1.90625 -0.3125 1.921875 -0.25 1.953125 -0.21875 C 1.992188 -0.1875 2.050781 -0.171875 2.125 -0.171875 L 2.140625 -0.171875 L 2.140625 0 L 1.390625 0 L 1.390625 -1.09375 C 1.390625 -1.238281 1.367188 -1.347656 1.328125 -1.421875 C 1.296875 -1.503906 1.226562 -1.546875 1.125 -1.546875 C 1.050781 -1.546875 0.992188 -1.519531 0.953125 -1.46875 C 0.910156 -1.425781 0.878906 -1.363281 0.859375 -1.28125 C 0.847656 -1.207031 0.84375 -1.125 0.84375 -1.03125 L 0.84375 -0.390625 C 0.84375 -0.296875 0.863281 -0.234375 0.90625 -0.203125 C 0.945312 -0.179688 1.003906 -0.171875 1.078125 -0.171875 L 1.09375 -0.171875 L 1.09375 0 Z "/>
</g>
<g id="glyph-1-12">
<path d="M 0.8125 0.03125 C 0.65625 0.03125 0.53125 -0.00390625 0.4375 -0.078125 C 0.351562 -0.160156 0.3125 -0.300781 0.3125 -0.5 L 0.3125 -1.5625 L 0.0625 -1.5625 L 0.0625 -1.734375 C 0.132812 -1.734375 0.195312 -1.742188 0.25 -1.765625 C 0.3125 -1.796875 0.359375 -1.828125 0.390625 -1.859375 C 0.460938 -1.941406 0.515625 -2.054688 0.546875 -2.203125 L 0.828125 -2.203125 L 0.828125 -1.78125 L 1.25 -1.78125 L 1.25 -1.5625 L 0.828125 -1.5625 L 0.828125 -0.53125 C 0.828125 -0.425781 0.84375 -0.347656 0.875 -0.296875 C 0.90625 -0.253906 0.960938 -0.234375 1.046875 -0.234375 C 1.085938 -0.234375 1.128906 -0.234375 1.171875 -0.234375 C 1.210938 -0.242188 1.25 -0.253906 1.28125 -0.265625 L 1.28125 -0.046875 C 1.25 -0.0351562 1.191406 -0.0195312 1.109375 0 C 1.023438 0.0195312 0.925781 0.03125 0.8125 0.03125 Z "/>
</g>
<g id="glyph-1-13">
<path d="M 0.09375 0 L 0.09375 -0.171875 L 0.234375 -0.171875 C 0.273438 -0.171875 0.3125 -0.179688 0.34375 -0.203125 C 0.382812 -0.234375 0.40625 -0.289062 0.40625 -0.375 L 0.40625 -2 C 0.40625 -2.082031 0.382812 -2.132812 0.34375 -2.15625 C 0.3125 -2.1875 0.273438 -2.203125 0.234375 -2.203125 L 0.09375 -2.203125 L 0.09375 -2.375 L 1.171875 -2.375 C 1.484375 -2.375 1.710938 -2.320312 1.859375 -2.21875 C 2.003906 -2.113281 2.078125 -1.960938 2.078125 -1.765625 C 2.078125 -1.640625 2.050781 -1.535156 2 -1.453125 C 1.957031 -1.378906 1.898438 -1.3125 1.828125 -1.25 C 1.765625 -1.195312 1.695312 -1.15625 1.625 -1.125 L 2.015625 -0.453125 C 2.078125 -0.359375 2.132812 -0.285156 2.1875 -0.234375 C 2.238281 -0.191406 2.296875 -0.171875 2.359375 -0.171875 L 2.359375 0 L 2.25 0 C 2.125 0 2.015625 -0.00390625 1.921875 -0.015625 C 1.835938 -0.0351562 1.765625 -0.0664062 1.703125 -0.109375 C 1.640625 -0.148438 1.585938 -0.210938 1.546875 -0.296875 L 1.140625 -1.03125 L 0.921875 -1.03125 L 0.921875 -0.375 C 0.921875 -0.289062 0.9375 -0.234375 0.96875 -0.203125 C 1.007812 -0.179688 1.050781 -0.171875 1.09375 -0.171875 L 1.234375 -0.171875 L 1.234375 0 Z M 1.109375 -1.21875 C 1.265625 -1.21875 1.367188 -1.257812 1.421875 -1.34375 C 1.484375 -1.425781 1.515625 -1.550781 1.515625 -1.71875 C 1.515625 -1.882812 1.484375 -2.003906 1.421875 -2.078125 C 1.359375 -2.148438 1.253906 -2.1875 1.109375 -2.1875 L 0.921875 -2.1875 L 0.921875 -1.21875 Z "/>
</g>
<g id="glyph-1-14">
<path d="M 0.671875 0.03125 C 0.523438 0.03125 0.398438 -0.0078125 0.296875 -0.09375 C 0.203125 -0.1875 0.15625 -0.328125 0.15625 -0.515625 C 0.15625 -0.691406 0.210938 -0.820312 0.328125 -0.90625 C 0.453125 -0.988281 0.640625 -1.035156 0.890625 -1.046875 L 1.171875 -1.0625 L 1.171875 -1.25 C 1.171875 -1.351562 1.15625 -1.441406 1.125 -1.515625 C 1.101562 -1.585938 1.050781 -1.625 0.96875 -1.625 C 0.875 -1.625 0.8125 -1.585938 0.78125 -1.515625 C 0.75 -1.453125 0.734375 -1.367188 0.734375 -1.265625 C 0.585938 -1.265625 0.476562 -1.28125 0.40625 -1.3125 C 0.332031 -1.34375 0.296875 -1.398438 0.296875 -1.484375 C 0.296875 -1.566406 0.320312 -1.628906 0.375 -1.671875 C 0.4375 -1.722656 0.519531 -1.757812 0.625 -1.78125 C 0.726562 -1.8125 0.84375 -1.828125 0.96875 -1.828125 C 1.207031 -1.828125 1.382812 -1.785156 1.5 -1.703125 C 1.613281 -1.617188 1.671875 -1.472656 1.671875 -1.265625 L 1.671875 -0.40625 C 1.671875 -0.320312 1.6875 -0.257812 1.71875 -0.21875 C 1.75 -0.1875 1.800781 -0.171875 1.875 -0.171875 L 1.890625 -0.171875 L 1.890625 0 L 1.265625 0 L 1.203125 -0.234375 L 1.171875 -0.234375 C 1.117188 -0.171875 1.070312 -0.117188 1.03125 -0.078125 C 0.988281 -0.0351562 0.9375 -0.0078125 0.875 0 C 0.820312 0.0195312 0.753906 0.03125 0.671875 0.03125 Z M 0.859375 -0.203125 C 0.953125 -0.203125 1.023438 -0.238281 1.078125 -0.3125 C 1.140625 -0.394531 1.171875 -0.503906 1.171875 -0.640625 L 1.171875 -0.890625 L 1.015625 -0.875 C 0.878906 -0.863281 0.785156 -0.828125 0.734375 -0.765625 C 0.691406 -0.703125 0.671875 -0.613281 0.671875 -0.5 C 0.671875 -0.300781 0.734375 -0.203125 0.859375 -0.203125 Z "/>
</g>
<g id="glyph-1-15">
<path d="M 0.234375 -1.4375 C 0.210938 -1.5 0.179688 -1.539062 0.140625 -1.5625 C 0.109375 -1.59375 0.0625 -1.609375 0 -1.609375 L -0.015625 -1.609375 L -0.015625 -1.78125 L 0.96875 -1.78125 L 0.96875 -1.609375 L 0.921875 -1.609375 C 0.859375 -1.609375 0.804688 -1.597656 0.765625 -1.578125 C 0.734375 -1.554688 0.71875 -1.519531 0.71875 -1.46875 C 0.71875 -1.445312 0.71875 -1.421875 0.71875 -1.390625 C 0.726562 -1.367188 0.738281 -1.347656 0.75 -1.328125 L 0.875 -0.890625 C 0.894531 -0.804688 0.910156 -0.722656 0.921875 -0.640625 C 0.941406 -0.554688 0.957031 -0.488281 0.96875 -0.4375 L 0.984375 -0.4375 C 0.992188 -0.488281 1.003906 -0.546875 1.015625 -0.609375 C 1.035156 -0.671875 1.0625 -0.738281 1.09375 -0.8125 L 1.421875 -1.765625 L 1.640625 -1.765625 L 1.96875 -0.78125 C 2 -0.707031 2.019531 -0.640625 2.03125 -0.578125 C 2.039062 -0.523438 2.050781 -0.476562 2.0625 -0.4375 C 2.070312 -0.488281 2.082031 -0.539062 2.09375 -0.59375 C 2.113281 -0.644531 2.132812 -0.710938 2.15625 -0.796875 L 2.296875 -1.28125 C 2.304688 -1.3125 2.3125 -1.34375 2.3125 -1.375 C 2.320312 -1.40625 2.328125 -1.425781 2.328125 -1.4375 C 2.328125 -1.550781 2.253906 -1.609375 2.109375 -1.609375 L 2.09375 -1.609375 L 2.09375 -1.78125 L 2.859375 -1.78125 L 2.859375 -1.609375 L 2.8125 -1.609375 C 2.75 -1.609375 2.695312 -1.59375 2.65625 -1.5625 C 2.625 -1.53125 2.59375 -1.457031 2.5625 -1.34375 L 2.125 0 L 1.765625 0 L 1.40625 -1.109375 L 1.03125 0 L 0.65625 0 Z "/>
</g>
<g id="glyph-1-16">
<path d="M 0.875 0.03125 C 0.675781 0.03125 0.519531 0.0078125 0.40625 -0.03125 C 0.289062 -0.0820312 0.207031 -0.144531 0.15625 -0.21875 C 0.113281 -0.289062 0.09375 -0.363281 0.09375 -0.4375 C 0.09375 -0.507812 0.109375 -0.566406 0.140625 -0.609375 C 0.179688 -0.660156 0.226562 -0.691406 0.28125 -0.703125 C 0.34375 -0.722656 0.40625 -0.734375 0.46875 -0.734375 C 0.46875 -0.546875 0.507812 -0.40625 0.59375 -0.3125 C 0.6875 -0.21875 0.800781 -0.171875 0.9375 -0.171875 C 1.0625 -0.171875 1.160156 -0.203125 1.234375 -0.265625 C 1.304688 -0.335938 1.34375 -0.425781 1.34375 -0.53125 C 1.34375 -0.644531 1.296875 -0.734375 1.203125 -0.796875 C 1.109375 -0.867188 0.96875 -0.941406 0.78125 -1.015625 C 0.632812 -1.078125 0.515625 -1.144531 0.421875 -1.21875 C 0.328125 -1.289062 0.257812 -1.367188 0.21875 -1.453125 C 0.1875 -1.535156 0.171875 -1.628906 0.171875 -1.734375 C 0.171875 -1.867188 0.203125 -1.988281 0.265625 -2.09375 C 0.335938 -2.195312 0.4375 -2.273438 0.5625 -2.328125 C 0.6875 -2.378906 0.828125 -2.40625 0.984375 -2.40625 C 1.222656 -2.40625 1.398438 -2.367188 1.515625 -2.296875 C 1.628906 -2.222656 1.6875 -2.132812 1.6875 -2.03125 C 1.6875 -1.945312 1.648438 -1.878906 1.578125 -1.828125 C 1.515625 -1.773438 1.414062 -1.75 1.28125 -1.75 C 1.28125 -1.8125 1.269531 -1.875 1.25 -1.9375 C 1.226562 -2.007812 1.191406 -2.070312 1.140625 -2.125 C 1.085938 -2.175781 1.015625 -2.203125 0.921875 -2.203125 C 0.835938 -2.203125 0.757812 -2.175781 0.6875 -2.125 C 0.625 -2.070312 0.59375 -2 0.59375 -1.90625 C 0.59375 -1.84375 0.609375 -1.78125 0.640625 -1.71875 C 0.671875 -1.664062 0.722656 -1.613281 0.796875 -1.5625 C 0.878906 -1.507812 0.992188 -1.457031 1.140625 -1.40625 C 1.367188 -1.3125 1.53125 -1.207031 1.625 -1.09375 C 1.726562 -0.988281 1.78125 -0.859375 1.78125 -0.703125 C 1.78125 -0.554688 1.742188 -0.425781 1.671875 -0.3125 C 1.597656 -0.207031 1.492188 -0.125 1.359375 -0.0625 C 1.222656 0 1.0625 0.03125 0.875 0.03125 Z "/>
</g>
<g id="glyph-1-17">
<path d="M 0.578125 -2.078125 C 0.492188 -2.078125 0.425781 -2.097656 0.375 -2.140625 C 0.320312 -2.179688 0.296875 -2.242188 0.296875 -2.328125 C 0.296875 -2.410156 0.320312 -2.46875 0.375 -2.5 C 0.425781 -2.539062 0.492188 -2.5625 0.578125 -2.5625 C 0.648438 -2.5625 0.710938 -2.539062 0.765625 -2.5 C 0.828125 -2.46875 0.859375 -2.410156 0.859375 -2.328125 C 0.859375 -2.242188 0.828125 -2.179688 0.765625 -2.140625 C 0.710938 -2.097656 0.648438 -2.078125 0.578125 -2.078125 Z M -0.0625 0.796875 L -0.0625 0.59375 L -0.046875 0.59375 C 0.078125 0.59375 0.171875 0.550781 0.234375 0.46875 C 0.296875 0.382812 0.328125 0.226562 0.328125 0 L 0.328125 -1.390625 C 0.328125 -1.484375 0.300781 -1.539062 0.25 -1.5625 C 0.195312 -1.59375 0.132812 -1.609375 0.0625 -1.609375 L 0.0625 -1.78125 L 0.84375 -1.78125 L 0.84375 0.03125 C 0.84375 0.226562 0.804688 0.378906 0.734375 0.484375 C 0.660156 0.597656 0.5625 0.675781 0.4375 0.71875 C 0.3125 0.769531 0.164062 0.796875 0 0.796875 Z "/>
</g>
<g id="glyph-1-18">
<path d="M 0.984375 0.03125 C 0.816406 0.03125 0.671875 0.00390625 0.546875 -0.046875 C 0.421875 -0.109375 0.320312 -0.207031 0.25 -0.34375 C 0.1875 -0.476562 0.15625 -0.660156 0.15625 -0.890625 C 0.15625 -1.128906 0.191406 -1.316406 0.265625 -1.453125 C 0.335938 -1.585938 0.429688 -1.679688 0.546875 -1.734375 C 0.671875 -1.796875 0.8125 -1.828125 0.96875 -1.828125 C 1.1875 -1.828125 1.347656 -1.789062 1.453125 -1.71875 C 1.566406 -1.65625 1.625 -1.578125 1.625 -1.484375 C 1.625 -1.429688 1.613281 -1.382812 1.59375 -1.34375 C 1.570312 -1.300781 1.53125 -1.265625 1.46875 -1.234375 C 1.40625 -1.203125 1.316406 -1.1875 1.203125 -1.1875 C 1.203125 -1.269531 1.191406 -1.34375 1.171875 -1.40625 C 1.160156 -1.46875 1.140625 -1.519531 1.109375 -1.5625 C 1.078125 -1.601562 1.035156 -1.625 0.984375 -1.625 C 0.921875 -1.625 0.863281 -1.601562 0.8125 -1.5625 C 0.769531 -1.519531 0.734375 -1.441406 0.703125 -1.328125 C 0.679688 -1.222656 0.671875 -1.078125 0.671875 -0.890625 C 0.671875 -0.660156 0.703125 -0.488281 0.765625 -0.375 C 0.828125 -0.269531 0.925781 -0.21875 1.0625 -0.21875 C 1.175781 -0.21875 1.273438 -0.242188 1.359375 -0.296875 C 1.441406 -0.347656 1.503906 -0.410156 1.546875 -0.484375 C 1.578125 -0.472656 1.597656 -0.453125 1.609375 -0.421875 C 1.617188 -0.390625 1.625 -0.359375 1.625 -0.328125 C 1.625 -0.273438 1.597656 -0.21875 1.546875 -0.15625 C 1.503906 -0.101562 1.4375 -0.0546875 1.34375 -0.015625 C 1.25 0.015625 1.128906 0.03125 0.984375 0.03125 Z "/>
</g>
<g id="glyph-1-19">
<path d="M 0.0625 0 L 0.0625 -0.171875 L 0.078125 -0.171875 C 0.148438 -0.171875 0.210938 -0.179688 0.265625 -0.203125 C 0.316406 -0.234375 0.34375 -0.300781 0.34375 -0.40625 L 0.328125 -2.15625 C 0.328125 -2.207031 0.3125 -2.25 0.28125 -2.28125 C 0.257812 -2.3125 0.226562 -2.332031 0.1875 -2.34375 C 0.15625 -2.351562 0.125 -2.359375 0.09375 -2.359375 L 0.0625 -2.359375 L 0.0625 -2.53125 L 0.84375 -2.53125 L 0.84375 -1.984375 C 0.84375 -1.921875 0.835938 -1.859375 0.828125 -1.796875 C 0.828125 -1.734375 0.820312 -1.675781 0.8125 -1.625 C 0.8125 -1.582031 0.8125 -1.5625 0.8125 -1.5625 L 0.84375 -1.5625 C 0.882812 -1.644531 0.929688 -1.703125 0.984375 -1.734375 C 1.035156 -1.773438 1.09375 -1.800781 1.15625 -1.8125 C 1.21875 -1.820312 1.28125 -1.828125 1.34375 -1.828125 C 1.519531 -1.828125 1.65625 -1.773438 1.75 -1.671875 C 1.851562 -1.566406 1.90625 -1.40625 1.90625 -1.1875 L 1.90625 -0.40625 C 1.90625 -0.3125 1.921875 -0.25 1.953125 -0.21875 C 1.992188 -0.1875 2.050781 -0.171875 2.125 -0.171875 L 2.140625 -0.171875 L 2.140625 0 L 1.390625 0 L 1.390625 -1.09375 C 1.390625 -1.238281 1.367188 -1.347656 1.328125 -1.421875 C 1.296875 -1.503906 1.226562 -1.546875 1.125 -1.546875 C 1.050781 -1.546875 0.992188 -1.519531 0.953125 -1.46875 C 0.910156 -1.425781 0.878906 -1.363281 0.859375 -1.28125 C 0.847656 -1.207031 0.84375 -1.125 0.84375 -1.03125 L 0.84375 -0.390625 C 0.84375 -0.296875 0.863281 -0.234375 0.90625 -0.203125 C 0.945312 -0.179688 1.003906 -0.171875 1.078125 -0.171875 L 1.09375 -0.171875 L 1.09375 0 Z "/>
</g>
<g id="glyph-1-20">
<path d="M 0.09375 0 L 0.09375 -0.171875 L 0.234375 -0.171875 C 0.273438 -0.171875 0.3125 -0.179688 0.34375 -0.203125 C 0.382812 -0.234375 0.40625 -0.289062 0.40625 -0.375 L 0.40625 -1.984375 C 0.40625 -2.078125 0.390625 -2.132812 0.359375 -2.15625 C 0.328125 -2.1875 0.285156 -2.203125 0.234375 -2.203125 L 0.09375 -2.203125 L 0.09375 -2.375 L 1.9375 -2.375 L 1.953125 -1.765625 L 1.71875 -1.765625 L 1.703125 -1.921875 C 1.691406 -2.003906 1.671875 -2.066406 1.640625 -2.109375 C 1.609375 -2.148438 1.554688 -2.171875 1.484375 -2.171875 L 0.9375 -2.171875 L 0.9375 -1.34375 L 1.71875 -1.34375 L 1.71875 -1.140625 L 0.9375 -1.140625 L 0.9375 -0.203125 L 1.59375 -0.203125 C 1.664062 -0.203125 1.71875 -0.222656 1.75 -0.265625 C 1.78125 -0.316406 1.800781 -0.378906 1.8125 -0.453125 L 1.84375 -0.609375 L 2.0625 -0.609375 L 2.046875 0 Z "/>
</g>
<g id="glyph-1-21">
<path d="M 0.765625 0.03125 C 0.523438 0.03125 0.351562 -0.00390625 0.25 -0.078125 C 0.144531 -0.148438 0.09375 -0.242188 0.09375 -0.359375 C 0.09375 -0.429688 0.109375 -0.484375 0.140625 -0.515625 C 0.179688 -0.554688 0.226562 -0.582031 0.28125 -0.59375 C 0.332031 -0.601562 0.375 -0.609375 0.40625 -0.609375 C 0.40625 -0.472656 0.4375 -0.363281 0.5 -0.28125 C 0.570312 -0.195312 0.660156 -0.15625 0.765625 -0.15625 C 0.878906 -0.15625 0.960938 -0.175781 1.015625 -0.21875 C 1.066406 -0.269531 1.09375 -0.328125 1.09375 -0.390625 C 1.09375 -0.460938 1.0625 -0.519531 1 -0.5625 C 0.945312 -0.613281 0.84375 -0.664062 0.6875 -0.71875 C 0.507812 -0.78125 0.375 -0.851562 0.28125 -0.9375 C 0.1875 -1.03125 0.140625 -1.148438 0.140625 -1.296875 C 0.140625 -1.472656 0.203125 -1.601562 0.328125 -1.6875 C 0.460938 -1.78125 0.632812 -1.828125 0.84375 -1.828125 C 0.988281 -1.828125 1.101562 -1.8125 1.1875 -1.78125 C 1.269531 -1.75 1.332031 -1.707031 1.375 -1.65625 C 1.414062 -1.613281 1.4375 -1.566406 1.4375 -1.515625 C 1.4375 -1.441406 1.410156 -1.382812 1.359375 -1.34375 C 1.304688 -1.300781 1.21875 -1.28125 1.09375 -1.28125 C 1.09375 -1.394531 1.066406 -1.484375 1.015625 -1.546875 C 0.960938 -1.609375 0.890625 -1.640625 0.796875 -1.640625 C 0.722656 -1.640625 0.660156 -1.617188 0.609375 -1.578125 C 0.554688 -1.546875 0.53125 -1.492188 0.53125 -1.421875 C 0.53125 -1.378906 0.539062 -1.335938 0.5625 -1.296875 C 0.59375 -1.265625 0.640625 -1.234375 0.703125 -1.203125 C 0.773438 -1.171875 0.867188 -1.132812 0.984375 -1.09375 C 1.128906 -1.039062 1.25 -0.972656 1.34375 -0.890625 C 1.4375 -0.804688 1.484375 -0.691406 1.484375 -0.546875 C 1.484375 -0.367188 1.421875 -0.226562 1.296875 -0.125 C 1.171875 -0.0195312 0.992188 0.03125 0.765625 0.03125 Z "/>
</g>
<g id="glyph-1-22">
<path d="M 0.078125 -0.734375 L 0.078125 -1.078125 L 0.953125 -1.078125 L 0.953125 -0.734375 Z "/>
</g>
<g id="glyph-1-23">
<path d="M 0.828125 0.03125 C 0.609375 0.03125 0.441406 -0.0390625 0.328125 -0.1875 C 0.210938 -0.332031 0.15625 -0.566406 0.15625 -0.890625 C 0.15625 -1.210938 0.210938 -1.445312 0.328125 -1.59375 C 0.441406 -1.75 0.609375 -1.828125 0.828125 -1.828125 C 0.953125 -1.828125 1.050781 -1.800781 1.125 -1.75 C 1.207031 -1.695312 1.273438 -1.632812 1.328125 -1.5625 L 1.34375 -1.5625 C 1.332031 -1.625 1.320312 -1.691406 1.3125 -1.765625 C 1.3125 -1.847656 1.3125 -1.914062 1.3125 -1.96875 L 1.3125 -2.140625 C 1.3125 -2.234375 1.285156 -2.289062 1.234375 -2.3125 C 1.179688 -2.34375 1.117188 -2.359375 1.046875 -2.359375 L 1.015625 -2.359375 L 1.015625 -2.53125 L 1.828125 -2.53125 L 1.828125 -0.40625 C 1.828125 -0.34375 1.835938 -0.289062 1.859375 -0.25 C 1.890625 -0.21875 1.925781 -0.195312 1.96875 -0.1875 C 2.007812 -0.175781 2.050781 -0.171875 2.09375 -0.171875 L 2.109375 -0.171875 L 2.109375 0 L 1.46875 0 L 1.375 -0.265625 L 1.34375 -0.265625 C 1.289062 -0.171875 1.222656 -0.0976562 1.140625 -0.046875 C 1.066406 0.00390625 0.960938 0.03125 0.828125 0.03125 Z M 0.96875 -0.21875 C 1.101562 -0.21875 1.191406 -0.269531 1.234375 -0.375 C 1.285156 -0.488281 1.3125 -0.660156 1.3125 -0.890625 C 1.3125 -1.109375 1.285156 -1.273438 1.234375 -1.390625 C 1.191406 -1.515625 1.101562 -1.578125 0.96875 -1.578125 C 0.863281 -1.578125 0.785156 -1.515625 0.734375 -1.390625 C 0.691406 -1.273438 0.671875 -1.109375 0.671875 -0.890625 C 0.671875 -0.660156 0.691406 -0.488281 0.734375 -0.375 C 0.785156 -0.269531 0.863281 -0.21875 0.96875 -0.21875 Z "/>
</g>
<g id="glyph-1-24">
<path d="M 0.0625 0 L 0.0625 -0.171875 L 0.140625 -0.171875 C 0.171875 -0.171875 0.203125 -0.175781 0.234375 -0.1875 C 0.273438 -0.195312 0.304688 -0.21875 0.328125 -0.25 C 0.359375 -0.28125 0.375 -0.328125 0.375 -0.390625 L 0.375 -1.5625 L 0.078125 -1.5625 L 0.078125 -1.78125 L 0.375 -1.78125 L 0.375 -1.90625 C 0.375 -2.113281 0.425781 -2.273438 0.53125 -2.390625 C 0.644531 -2.503906 0.816406 -2.5625 1.046875 -2.5625 C 1.191406 -2.5625 1.300781 -2.550781 1.375 -2.53125 C 1.457031 -2.507812 1.515625 -2.476562 1.546875 -2.4375 C 1.585938 -2.40625 1.609375 -2.363281 1.609375 -2.3125 C 1.609375 -2.164062 1.472656 -2.09375 1.203125 -2.09375 C 1.203125 -2.132812 1.195312 -2.175781 1.1875 -2.21875 C 1.175781 -2.257812 1.15625 -2.296875 1.125 -2.328125 C 1.101562 -2.359375 1.070312 -2.375 1.03125 -2.375 C 0.976562 -2.375 0.9375 -2.34375 0.90625 -2.28125 C 0.882812 -2.21875 0.875 -2.113281 0.875 -1.96875 L 0.875 -1.78125 L 1.34375 -1.78125 L 1.34375 -1.5625 L 0.875 -1.5625 L 0.875 -0.390625 C 0.875 -0.328125 0.882812 -0.28125 0.90625 -0.25 C 0.9375 -0.21875 0.96875 -0.195312 1 -0.1875 C 1.039062 -0.175781 1.078125 -0.171875 1.109375 -0.171875 L 1.265625 -0.171875 L 1.265625 0 Z "/>
</g>
<g id="glyph-1-25">
<path d="M 0.859375 0.03125 C 0.679688 0.03125 0.546875 -0.0195312 0.453125 -0.125 C 0.359375 -0.238281 0.3125 -0.40625 0.3125 -0.625 L 0.3125 -1.375 C 0.3125 -1.46875 0.296875 -1.53125 0.265625 -1.5625 C 0.234375 -1.59375 0.175781 -1.609375 0.09375 -1.609375 L 0.09375 -1.78125 L 0.828125 -1.78125 L 0.828125 -0.71875 C 0.828125 -0.570312 0.84375 -0.457031 0.875 -0.375 C 0.914062 -0.289062 0.984375 -0.25 1.078125 -0.25 C 1.179688 -0.25 1.253906 -0.289062 1.296875 -0.375 C 1.347656 -0.46875 1.375 -0.59375 1.375 -0.75 L 1.375 -1.390625 C 1.375 -1.492188 1.347656 -1.554688 1.296875 -1.578125 C 1.253906 -1.597656 1.203125 -1.609375 1.140625 -1.609375 L 1.125 -1.609375 L 1.125 -1.78125 L 1.890625 -1.78125 L 1.890625 -0.390625 C 1.890625 -0.296875 1.910156 -0.234375 1.953125 -0.203125 C 1.992188 -0.179688 2.046875 -0.171875 2.109375 -0.171875 L 2.140625 -0.171875 L 2.140625 0 L 1.46875 0 L 1.40625 -0.234375 L 1.390625 -0.234375 C 1.316406 -0.117188 1.234375 -0.046875 1.140625 -0.015625 C 1.054688 0.015625 0.960938 0.03125 0.859375 0.03125 Z "/>
</g>
<g id="glyph-1-26">
<path d="M 0.0625 0 L 0.0625 -0.171875 L 0.09375 -0.171875 C 0.125 -0.171875 0.15625 -0.175781 0.1875 -0.1875 C 0.226562 -0.195312 0.257812 -0.21875 0.28125 -0.25 C 0.3125 -0.28125 0.328125 -0.328125 0.328125 -0.390625 L 0.328125 -2.15625 C 0.328125 -2.207031 0.3125 -2.25 0.28125 -2.28125 C 0.257812 -2.3125 0.226562 -2.332031 0.1875 -2.34375 C 0.15625 -2.351562 0.125 -2.359375 0.09375 -2.359375 L 0.0625 -2.359375 L 0.0625 -2.53125 L 0.84375 -2.53125 L 0.84375 -1.25 C 0.84375 -1.207031 0.835938 -1.15625 0.828125 -1.09375 C 0.828125 -1.039062 0.828125 -0.992188 0.828125 -0.953125 C 0.828125 -0.921875 0.828125 -0.90625 0.828125 -0.90625 L 1.234375 -1.375 C 1.273438 -1.414062 1.300781 -1.445312 1.3125 -1.46875 C 1.320312 -1.488281 1.328125 -1.507812 1.328125 -1.53125 C 1.328125 -1.59375 1.269531 -1.625 1.15625 -1.625 L 1.15625 -1.78125 L 2 -1.78125 L 2 -1.625 C 1.925781 -1.625 1.847656 -1.597656 1.765625 -1.546875 C 1.691406 -1.503906 1.613281 -1.429688 1.53125 -1.328125 L 1.3125 -1.09375 L 1.765625 -0.4375 C 1.816406 -0.34375 1.875 -0.273438 1.9375 -0.234375 C 2 -0.191406 2.054688 -0.171875 2.109375 -0.171875 L 2.109375 0 L 2.0625 0 C 1.945312 0 1.847656 0 1.765625 0 C 1.679688 -0.0078125 1.609375 -0.0234375 1.546875 -0.046875 C 1.492188 -0.0664062 1.441406 -0.09375 1.390625 -0.125 C 1.347656 -0.164062 1.304688 -0.222656 1.265625 -0.296875 L 0.96875 -0.765625 L 0.84375 -0.65625 L 0.84375 -0.390625 C 0.84375 -0.328125 0.851562 -0.28125 0.875 -0.25 C 0.90625 -0.21875 0.9375 -0.195312 0.96875 -0.1875 C 1.007812 -0.175781 1.046875 -0.171875 1.078125 -0.171875 L 1.109375 -0.171875 L 1.109375 0 Z "/>
</g>
<g id="glyph-1-27">
<path d="M 0.515625 -0.765625 L 0.34375 -2.375 L 0.921875 -2.375 L 0.75 -0.765625 Z M 0.640625 0.03125 C 0.566406 0.03125 0.5 0.0078125 0.4375 -0.03125 C 0.382812 -0.0703125 0.359375 -0.140625 0.359375 -0.234375 C 0.359375 -0.335938 0.382812 -0.40625 0.4375 -0.4375 C 0.5 -0.476562 0.566406 -0.5 0.640625 -0.5 C 0.710938 -0.5 0.773438 -0.476562 0.828125 -0.4375 C 0.878906 -0.40625 0.90625 -0.335938 0.90625 -0.234375 C 0.90625 -0.140625 0.878906 -0.0703125 0.828125 -0.03125 C 0.773438 0.0078125 0.710938 0.03125 0.640625 0.03125 Z "/>
</g>
</g>
</defs>
<g fill="rgb(2.352941%, 71.372549%, 83.137255%)" fill-opacity="1">
<use xlink:href="#glyph-0-0" x="30" y="23.5625"/>
</g>
<g fill="rgb(2.352941%, 71.372549%, 83.137255%)" fill-opacity="1">
<use xlink:href="#glyph-1-0" x="33" y="23.5625"/>
<use xlink:href="#glyph-1-1" x="34" y="23.5625"/>
<use xlink:href="#glyph-1-2" x="37" y="23.5625"/>
<use xlink:href="#glyph-1-3" x="39" y="23.5625"/>
<use xlink:href="#glyph-1-0" x="41" y="23.5625"/>
<use xlink:href="#glyph-1-4" x="42" y="23.5625"/>
<use xlink:href="#glyph-1-5" x="44" y="23.5625"/>
<use xlink:href="#glyph-1-6" x="46" y="23.5625"/>
<use xlink:href="#glyph-1-7" x="49" y="23.5625"/>
<use xlink:href="#glyph-1-8" x="51" y="23.5625"/>
<use xlink:href="#glyph-1-9" x="52" y="23.5625"/>
<use xlink:href="#glyph-1-2" x="53" y="23.5625"/>
<use xlink:href="#glyph-1-3" x="55" y="23.5625"/>
<use xlink:href="#glyph-1-0" x="57" y="23.5625"/>
<use xlink:href="#glyph-1-8" x="58" y="23.5625"/>
<use xlink:href="#glyph-1-10" x="59" y="23.5625"/>
<use xlink:href="#glyph-1-11" x="61" y="23.5625"/>
<use xlink:href="#glyph-1-5" x="63" y="23.5625"/>
<use xlink:href="#glyph-1-3" x="65" y="23.5625"/>
<use xlink:href="#glyph-1-8" x="67" y="23.5625"/>
<use xlink:href="#glyph-1-2" x="68" y="23.5625"/>
<use xlink:href="#glyph-1-3" x="70" y="23.5625"/>
<use xlink:href="#glyph-1-12" x="72" y="23.5625"/>
<use xlink:href="#glyph-1-0" x="73" y="23.5625"/>
<use xlink:href="#glyph-1-8" x="74" y="23.5625"/>
<use xlink:href="#glyph-1-6" x="75" y="23.5625"/>
<use xlink:href="#glyph-1-0" x="78" y="23.5625"/>
<use xlink:href="#glyph-1-13" x="79" y="23.5625"/>
<use xlink:href="#glyph-1-14" x="81" y="23.5625"/>
<use xlink:href="#glyph-1-15" x="83" y="23.5625"/>
<use xlink:href="#glyph-1-0" x="86" y="23.5625"/>
<use xlink:href="#glyph-1-16" x="87" y="23.5625"/>
<use xlink:href="#glyph-1-12" x="89" y="23.5625"/>
<use xlink:href="#glyph-1-3" x="90" y="23.5625"/>
<use xlink:href="#glyph-1-8" x="92" y="23.5625"/>
<use xlink:href="#glyph-1-11" x="93" y="23.5625"/>
<use xlink:href="#glyph-1-10" x="95" y="23.5625"/>
<use xlink:href="#glyph-1-0" x="97" y="23.5625"/>
<use xlink:href="#glyph-1-17" x="98" y="23.5625"/>
<use xlink:href="#glyph-1-2" x="99" y="23.5625"/>
<use xlink:href="#glyph-1-10" x="101" y="23.5625"/>
<use xlink:href="#glyph-1-9" x="103" y="23.5625"/>
<use xlink:href="#glyph-1-8" x="104" y="23.5625"/>
<use xlink:href="#glyph-1-18" x="105" y="23.5625"/>
<use xlink:href="#glyph-1-19" x="107" y="23.5625"/>
<use xlink:href="#glyph-1-2" x="109" y="23.5625"/>
<use xlink:href="#glyph-1-0" x="111" y="23.5625"/>
<use xlink:href="#glyph-1-20" x="112" y="23.5625"/>
<use xlink:href="#glyph-1-21" x="114" y="23.5625"/>
<use xlink:href="#glyph-1-18" x="116" y="23.5625"/>
<use xlink:href="#glyph-1-14" x="118" y="23.5625"/>
<use xlink:href="#glyph-1-7" x="120" y="23.5625"/>
<use xlink:href="#glyph-1-8" x="122" y="23.5625"/>
<use xlink:href="#glyph-1-11" x="123" y="23.5625"/>
<use xlink:href="#glyph-1-10" x="125" y="23.5625"/>
<use xlink:href="#glyph-1-22" x="127" y="23.5625"/>
<use xlink:href="#glyph-1-16" x="128" y="23.5625"/>
<use xlink:href="#glyph-1-5" x="130" y="23.5625"/>
<use xlink:href="#glyph-1-11" x="132" y="23.5625"/>
<use xlink:href="#glyph-1-23" x="134" y="23.5625"/>
<use xlink:href="#glyph-1-2" x="136" y="23.5625"/>
<use xlink:href="#glyph-1-3" x="138" y="23.5625"/>
<use xlink:href="#glyph-1-24" x="140" y="23.5625"/>
<use xlink:href="#glyph-1-25" x="141" y="23.5625"/>
<use xlink:href="#glyph-1-11" x="143" y="23.5625"/>
<use xlink:href="#glyph-1-26" x="145" y="23.5625"/>
<use xlink:href="#glyph-1-12" x="147" y="23.5625"/>
<use xlink:href="#glyph-1-8" x="148" y="23.5625"/>
<use xlink:href="#glyph-1-5" x="149" y="23.5625"/>
<use xlink:href="#glyph-1-11" x="151" y="23.5625"/>
<use xlink:href="#glyph-1-2" x="153" y="23.5625"/>
<use xlink:href="#glyph-1-11" x="155" y="23.5625"/>
<use xlink:href="#glyph-1-27" x="157" y="23.5625"/>
</g>
</svg>
