<?xml version="1.0" encoding="UTF-8"?>
<svg xmlns="http://www.w3.org/2000/svg" xmlns:xlink="http://www.w3.org/1999/xlink" width="854" height="480" viewBox="0 0 854 480">
<defs>
<g>
<g id="glyph-0-0">
<path d="M 1.0625 -1.859375 L 0.953125 -2.78125 L 1.359375 -2.78125 L 1.25 -1.859375 Z M 0.34375 -1.859375 L 0.21875 -2.78125 L 0.640625 -2.78125 L 0.515625 -1.859375 Z "/>
</g>
<g id="glyph-0-1">
<path d="M 0.140625 0 L 0.140625 -0.15625 L 0.203125 -0.15625 C 0.285156 -0.15625 0.359375 -0.171875 0.421875 -0.203125 C 0.484375 -0.234375 0.515625 -0.304688 0.515625 -0.421875 L 0.515625 -2.34375 C 0.515625 -2.457031 0.484375 -2.53125 0.421875 -2.5625 C 0.359375 -2.59375 0.285156 -2.609375 0.203125 -2.609375 L 0.140625 -2.609375 L 0.140625 -2.78125 L 1.03125 -2.78125 L 1.84375 -0.546875 L 2.640625 -2.78125 L 3.5 -2.78125 L 3.5 -2.609375 L 3.453125 -2.609375 C 3.359375 -2.609375 3.28125 -2.59375 3.21875 -2.5625 C 3.15625 -2.53125 3.125 -2.453125 3.125 -2.328125 L 3.125 -0.4375 C 3.125 -0.320312 3.15625 -0.242188 3.21875 -0.203125 C 3.28125 -0.171875 3.359375 -0.15625 3.453125 -0.15625 L 3.5 -0.15625 L 3.5 0 L 2.46875 0 L 2.46875 -0.15625 L 2.484375 -0.15625 C 2.566406 -0.15625 2.628906 -0.171875 2.671875 -0.203125 C 2.722656 -0.234375 2.753906 -0.300781 2.765625 -0.40625 L 2.765625 -2.484375 L 1.875 0 L 1.65625 0 L 0.75 -2.484375 L 0.75 -0.4375 C 0.75 -0.320312 0.773438 -0.242188 0.828125 -0.203125 C 0.878906 -0.171875 0.945312 -0.15625 1.03125 -0.15625 L 1.046875 -0.15625 L 1.046875 0 Z "/>
</g>
<g id="glyph-0-2">
<path d="M 1.109375 0.03125 C 0.835938 0.03125 0.617188 -0.0546875 0.453125 -0.234375 C 0.296875 -0.410156 0.21875 -0.679688 0.21875 -1.046875 C 0.21875 -1.410156 0.289062 -1.679688 0.4375 -1.859375 C 0.59375 -2.035156 0.820312 -2.125 1.125 -2.125 C 1.40625 -2.125 1.625 -2.035156 1.78125 -1.859375 C 1.945312 -1.679688 2.03125 -1.410156 2.03125 -1.046875 C 2.03125 -0.679688 1.953125 -0.410156 1.796875 -0.234375 C 1.640625 -0.0546875 1.410156 0.03125 1.109375 0.03125 Z M 1.125 -0.15625 C 1.320312 -0.15625 1.457031 -0.226562 1.53125 -0.375 C 1.613281 -0.53125 1.65625 -0.753906 1.65625 -1.046875 C 1.65625 -1.335938 1.613281 -1.554688 1.53125 -1.703125 C 1.445312 -1.847656 1.3125 -1.921875 1.125 -1.921875 C 0.925781 -1.921875 0.785156 -1.847656 0.703125 -1.703125 C 0.628906 -1.554688 0.59375 -1.335938 0.59375 -1.046875 C 0.59375 -0.753906 0.628906 -0.53125 0.703125 -0.375 C 0.785156 -0.226562 0.925781 -0.15625 1.125 -0.15625 Z "/>
</g>
<g id="glyph-0-3">
<path d="M 0.046875 0 L 0.046875 -0.15625 L 0.09375 -0.15625 C 0.1875 -0.15625 0.265625 -0.171875 0.328125 -0.203125 C 0.390625 -0.242188 0.421875 -0.320312 0.421875 -0.4375 L 0.421875 -2.53125 C 0.421875 -2.644531 0.390625 -2.71875 0.328125 -2.75 C 0.265625 -2.78125 0.1875 -2.796875 0.09375 -2.796875 L 0.046875 -2.796875 L 0.046875 -2.953125 L 0.78125 -2.953125 L 0.78125 -0.4375 C 0.78125 -0.320312 0.8125 -0.242188 0.875 -0.203125 C 0.9375 -0.171875 1.015625 -0.15625 1.109375 -0.15625 L 1.15625 -0.15625 L 1.15625 0 Z "/>
</g>
<g id="glyph-0-4">
<path d="M 0.140625 0.75 C 0.316406 0.75 0.460938 0.710938 0.578125 0.640625 C 0.691406 0.578125 0.785156 0.488281 0.859375 0.375 C 0.929688 0.257812 0.984375 0.128906 1.015625 -0.015625 L 0.296875 -1.71875 C 0.265625 -1.800781 0.226562 -1.851562 0.1875 -1.875 C 0.15625 -1.90625 0.101562 -1.921875 0.03125 -1.921875 L 0.015625 -1.921875 L 0.015625 -2.078125 L 0.953125 -2.078125 L 0.953125 -1.921875 L 0.9375 -1.921875 C 0.78125 -1.921875 0.703125 -1.859375 0.703125 -1.734375 C 0.703125 -1.691406 0.710938 -1.644531 0.734375 -1.59375 L 1.015625 -0.90625 C 1.046875 -0.84375 1.070312 -0.773438 1.09375 -0.703125 C 1.113281 -0.628906 1.132812 -0.5625 1.15625 -0.5 C 1.175781 -0.4375 1.191406 -0.378906 1.203125 -0.328125 C 1.222656 -0.410156 1.25 -0.488281 1.28125 -0.5625 C 1.3125 -0.644531 1.335938 -0.726562 1.359375 -0.8125 L 1.625 -1.5625 C 1.644531 -1.625 1.65625 -1.679688 1.65625 -1.734375 C 1.65625 -1.859375 1.570312 -1.921875 1.40625 -1.921875 L 1.390625 -1.921875 L 1.390625 -2.078125 L 2.203125 -2.078125 L 2.203125 -1.921875 L 2.1875 -1.921875 C 2.113281 -1.921875 2.054688 -1.898438 2.015625 -1.859375 C 1.972656 -1.828125 1.929688 -1.75 1.890625 -1.625 L 1.296875 0.015625 C 1.234375 0.203125 1.171875 0.351562 1.109375 0.46875 C 1.046875 0.59375 0.972656 0.6875 0.890625 0.75 C 0.816406 0.820312 0.722656 0.867188 0.609375 0.890625 C 0.492188 0.921875 0.351562 0.9375 0.1875 0.9375 L 0.140625 0.9375 Z "/>
</g>
</g>
</defs>
<g fill="rgb(2.352941%, 71.372549%, 83.137255%)" fill-opacity="1">
<use xlink:href="#glyph-0-0" x="30" y="24.158203"/>
<use xlink:href="#glyph-0-1" x="32" y="24.158203"/>
<use xlink:href="#glyph-0-2" x="36" y="24.158203"/>
<use xlink:href="#glyph-0-3" x="38" y="24.158203"/>
<use xlink:href="#glyph-0-3" x="39" y="24.158203"/>
<use xlink:href="#glyph-0-4" x="40" y="24.158203"/>
<use xlink:href="#glyph-0-0" x="42" y="24.158203"/>
</g>
</svg>
